<svg id="Layer_1" data-name="Layer 1" xmlns="http://www.w3.org/2000/svg" viewBox="0 0 1561.35 771.93">
    <defs>
        <style>.cls-1{fill:#e7a800;}.cls-2{fill:#3b1e34;}</style>
    </defs>
    <path class="cls-1" d="M994.59,614,849.91,729.83V1102H994.59S995.07,654.16,994.59,614Z" transform="translate(-219.33 -614.03)"/>
    <path class="cls-2" d="M1005.41,614l144.68,115.8V1102S1004.93,654.16,1005.41,614Z" transform="translate(-219.33 -614.03)"/>
    <path class="cls-1" d="M1241,795.34l-90.93,72.78V1102H1241S1241.32,820.56,1241,795.34Z" transform="translate(-219.33 -614.03)"/>
    <path class="cls-2" d="M1247.82,795.34l90.93,72.78V1102S1247.52,820.56,1247.82,795.34Z" transform="translate(-219.33 -614.03)"/>
    <path class="cls-1" d="M752.18,795.34l-90.93,72.78V1102h90.93S752.48,820.56,752.18,795.34Z" transform="translate(-219.33 -614.03)"/>
    <path class="cls-2" d="M759,795.34l90.93,72.78V1102S758.68,820.56,759,795.34Z" transform="translate(-219.33 -614.03)"/>
    <path class="cls-2" d="M369.6,1269.32a29.87,29.87,0,0,1-9-1.52,7.09,7.09,0,0,1-4.42-4.19c-.95-2.2-1.78-5.88-2.46-11l-13.4-95.16c-.54-3.48-1.57-5.18-3.14-5.18-1.3,0-2.51,1.3-3.69,4l-39.62,86.94-39.76-85.87c-1.61-3.45-3-5-4.42-5s-2.56,1.49-3,4.42l-14.58,100.38c-1,7.23-2.94,11.19-5.66,11.75a19,19,0,0,1-4.31.46c-1.89,0-2.84.52-2.84,1.56s.54,2.18,3.13,2.18c1.76,0,4.47-.08,8-.23s5.75-.23,6.54-.23c.58,0,2.72.08,6.38.23s6.72.23,9.08.23c2.66,0,4-.74,4-2.18,0-.71-.47-1.56-2.7-1.56a26.46,26.46,0,0,1-6.07-.76c-2.72-.66-4-2.12-4-4.45a57.92,57.92,0,0,1,.44-7.18l7.56-60.57c6.88,15.22,11.79,26.23,15.06,33.67,2,4.72,7.51,16.19,17,35,3.48,7,4.78,8,5.59,8s2.27-1.06,5.9-8.93l31.86-69.48,8.74,67c.62,5.08-.14,6-.5,6.1-1.54.62-1.86,1.52-1.86,2.16,0,1.65,2.7,2,4.73,2.18,7.43.61,17.5.92,29.93.92,2.86,0,4.31-.74,4.31-2.18C372.44,1269.84,371.49,1269.32,369.6,1269.32Z" transform="translate(-219.33 -614.03)"/>
    <path class="cls-2" d="M530.44,1155.7c-2.25,0-5.57.08-9.88.23l-6.88.23c-6.95-.31-12.66-.46-17-.46-2.38,0-3.59.63-3.59,1.87,0,.86.52,1.88,3,1.88a24.31,24.31,0,0,1,5.18.45c3.73.87,5.68,3.6,6,8.34.19,3.43.3,14.72.3,32.65v19.27c0,9.77-.41,17.1-1.18,21.81-1.26,7-3.69,12.37-7.24,16.09-5.18,5.43-11.9,8.18-20,8.18-7.22,0-13.31-2.09-18.1-6.21-7.5-6.46-11.32-19.09-11.32-37.56v-21.58c0-18.61.1-29.29.3-32.65.29-5,1.94-7.76,5.05-8.34a23.81,23.81,0,0,1,4.19-.45c2.34,0,2.84-1,2.84-1.88,0-1.87-2.81-1.87-3.73-1.87-1.86,0-5.11.08-9.67.23s-7.37.23-8.44.23-4.37-.08-9.48-.23-9.19-.23-12-.23c-.93,0-3.72,0-3.72,1.87,0,.86.51,1.87,3,1.87a26.27,26.27,0,0,1,5.64.46c3.72.87,5.67,3.59,5.95,8.32.2,3.36.3,14,.3,32.61v22.48c0,19,4.46,32.89,13.26,41.15,7.52,7.14,18.63,10.76,33,10.76,12.24,0,22.66-3.76,31-11.21,5.65-5.08,9.61-12.21,11.79-21.19,1.58-6.49,2.37-15.08,2.37-25.51v-16.48c0-18.58.09-29.25.29-32.61.29-5,1.94-7.75,5.06-8.32a22.74,22.74,0,0,1,4.18-.46c2.59,0,3.14-1,3.14-1.87C534,1156.33,532.82,1155.7,530.44,1155.7Z" transform="translate(-219.33 -614.03)"/>
    <path class="cls-2" d="M665.36,1248.07c-.81,0-1.83.48-2.1,2.74a15.92,15.92,0,0,1-3.71,9c-2.44,2.75-8.12,4.15-16.87,4.15-9.26,0-15.15-1.1-17.5-3.26-.88-.79-2-3.13-2.49-9.84-.3-3.68-.44-11.17-.44-22.91v-27.09c0-18.58.1-29.25.3-32.61.28-5,1.93-7.75,5-8.32a30.55,30.55,0,0,1,5.66-.46c2.08,0,3.14-.63,3.14-1.87s-1.2-1.87-3.58-1.87c-2.06,0-5.71.08-10.84.23s-8.22.23-9.19.23-4.08-.08-9-.23-8.68-.23-11.22-.23c-.93,0-3.73,0-3.73,1.87,0,.86.52,1.87,3,1.87,3.62,0,6.2.49,7.68,1.46,1.83,1.25,2.85,3.7,3,7.32.2,3.36.29,14,.29,32.61v27.09c0,17.73-.24,28.75-.73,32.75-.56,4.88-1.87,7.58-3.82,8-1.54.11-3,.27-4.43.47s-3.68.5-3.68,1.87,1.15,2,3.43,2,5.6-.08,10.25-.23,7.43-.23,8.31-.23c3.22,0,9.26.15,17.95.46s17,.46,24.91.46a30.5,30.5,0,0,0,5.86-.31c2-.47,3.26-1.88,3.9-4.2a71.07,71.07,0,0,0,2.21-17.84C667,1249.11,666.47,1248.07,665.36,1248.07Z" transform="translate(-219.33 -614.03)"/>
    <path class="cls-2" d="M810.61,1154.86l0-.08h-.45v.48l-.13-.44c-.12,0-.77.16-3.92.64a65,65,0,0,1-10.08.7H737.67c-4.48,0-9.42-.26-14.69-.77a11.1,11.1,0,0,1-3.81-1,7.82,7.82,0,0,0-2.55-.88c-1.26,0-1.89,1.88-2.25,3.31-2.09,9.15-3.1,15-3.1,17.81,0,2.44,1,2.95,1.81,2.95s1.66-.39,2.1-2.23a17.23,17.23,0,0,1,2.44-5.24c1.67-2.61,6.34-4,13.88-4.23l21.45-.6v62.61c0,17.23-.25,28.24-.73,32.75-.57,4.88-1.88,7.58-3.83,8-1.53.11-3,.27-4.43.47-1.58.14-3.68.49-3.68,1.87s1.16,2,3.43,2,5.61-.08,10.26-.23,7.43-.23,8.3-.23,4,.08,9.42.23,10,.23,13.71.23c2.71,0,3.29-1.1,3.29-2s-.5-1.72-2.85-1.72a53,53,0,0,1-7.44-.62c-3-.48-4.77-3.06-5.33-7.88-.49-4.48-.74-15.55-.74-32.9V1165.3l18.06.45c10.75.3,16.44,3.06,16.91,8.18l.14,1.7c.09.87.35,3.52,2.11,3.52,1,0,1.54-.92,1.67-2.75.09-1.52.22-4.67.37-9.35.15-5,.22-7.61.22-8.57S811.81,1155.33,810.61,1154.86Z" transform="translate(-219.33 -614.03)"/>
    <path class="cls-2" d="M911.79,1269.32a52.24,52.24,0,0,1-7.37-.62c-3.28-.48-5-2.8-5.42-7.1-.39-4.1-.58-15.11-.58-33.68v-27.09c0-18.27.09-29.25.28-32.61.29-5,1.92-7.75,5-8.32a23.52,23.52,0,0,1,4.49-.46c2.26,0,2.6-1.27,2.6-2,0-1.72-2.7-1.72-3.59-1.72-2.06,0-5.32.08-9.74.23s-7.15.23-8.22.23c-1.27,0-4.31-.08-9-.23s-8.15-.23-10.11-.23c-1.73,0-4,.17-4,1.72,0,.92.54,2,3.07,2a21.37,21.37,0,0,1,5,.6c2.84.77,4.36,3.44,4.64,8.18.2,3.36.3,14,.3,32.61v27.09c0,17.74-.25,29-.74,33.59-.46,4.32-1.77,6.74-3.82,7.19-1.53.11-3,.27-4.43.47s-3.68.5-3.68,1.87,1.15,2,3.43,2,5.61-.08,10.26-.23,7.42-.23,8.3-.23,4,.08,9.35.23,9.91.23,13.63.23c2.72,0,3.29-1.1,3.29-2S914.13,1269.32,911.79,1269.32Z" transform="translate(-219.33 -614.03)"/>
    <path class="cls-2" d="M1044.76,1154.52l-.43-.06v.49h0l-.21-.36a20.41,20.41,0,0,1-2.19.8,38.92,38.92,0,0,1-6,.61c-2,.1-14.73.15-38.86.15-1.17,0-4.31-.08-9.33-.23s-9.05-.23-11.88-.23c-2.57,0-3.87.68-3.87,2,0,1.15,1,1.72,3,1.72a26.23,26.23,0,0,1,5.63.46c3.73.87,5.67,3.59,6,8.32.2,3.36.29,14,.29,32.61v27.09c0,17.73-.25,28.75-.73,32.75-.56,4.88-1.87,7.58-3.82,8-1.54.11-2.95.27-4.28.47-1.59.14-3.68.49-3.68,1.87s1.2,2,3.57,2c2.09,0,5.4-.08,10.11-.23s7.52-.23,8.6-.23c.77,0,3.84.08,9.12.23s9.74.23,13.27.23c2.47,0,3.72-.68,3.72-2,0-1.15-1-1.72-3-1.72a53.06,53.06,0,0,1-7.35-.62c-3.06-.48-4.83-3.11-5.39-8-.49-4.48-.74-15.49-.74-32.75v-12.46c0-.9.34-.9.54-.9,12.16,0,19.5.15,21.83.46,3.77.48,6.11,2.2,7.12,5.14.2,1.33.46,2.69.74,4,.24,1.54.66,3.33,1.81,3.33,1.31,0,2-1.15,2-3.41,0-3.31.2-7.09.59-11.19.19-1.74.44-3.79.73-6.15.37-2.62.45-3.25.45-3.45,0-1.63-.86-1.86-1.37-1.86-.67,0-1.4.54-2.32,1.72-1.08,1.43-3,2.3-5.77,2.59-.44.1-2.75.15-6.85.15h-18.94c-.2,0-.54,0-.54-.89v-38.21c0-1.65.61-1.65.83-1.65l22.78.46c5,.09,8.13,1.53,9.32,4.28a14.15,14.15,0,0,1,.86,5.61c.14,2.39,1.14,2.89,2,2.89s1.67-.45,2-2.61q.43-7.24.73-12.45c.18-1.49.43-3,.72-4.56a11.56,11.56,0,0,0,.45-2.42C1045.84,1155.07,1045.25,1154.65,1044.76,1154.52Z" transform="translate(-219.33 -614.03)"/>
    <path class="cls-2" d="M1206.05,1269.32a27.46,27.46,0,0,1-6.08-.61c-4.33-1-8.57-6.52-12.61-16.48-15.17-38.94-27.46-70.79-36.53-94.7-1.49-3.56-2.81-5.22-4.13-5.22s-2.89,2.06-4.59,6.47l-37,96.69a36,36,0,0,1-4.78,9.41A10.72,10.72,0,0,1,1093,1269a31.58,31.58,0,0,1-4.5.31c-2,0-2.26,1.08-2.26,1.72,0,.92.57,2,3.29,2,3,0,8.88-.16,17.37-.46,1.46,0,4,.08,7.72.23s6.32.23,7.9.23c2.47,0,3-1.1,3-2s-.47-1.72-2.7-1.72h-2.2c-3.64,0-5.41-1.4-5.41-4.29,0-2.07.73-5.17,2.18-9.23l8-22c.32-.91.72-.91.86-.91h32.85a1,1,0,0,1,1,.75l11.78,32.65a2.66,2.66,0,0,1,.14,2,1.79,1.79,0,0,1-1,.85c-2.07.14-2.51,1.09-2.51,1.87,0,1.07,1.46,1.59,4.89,1.71,6.25.21,15.36.31,27.85.31a30.18,30.18,0,0,0,5.4-.32c1.54-.31,1.86-1.09,1.86-1.7S1208.14,1269.32,1206.05,1269.32Zm-49.46-45.17s-.07.06-.32.06h-27.1a.55.55,0,0,1-.16,0,.69.69,0,0,1,0-.41l13.57-37.94a4.08,4.08,0,0,1,.32-1,3.12,3.12,0,0,1,.37,1.06l13.24,38C1156.58,1224.07,1156.58,1224.15,1156.59,1224.15Z" transform="translate(-219.33 -614.03)"/>
    <path class="cls-2" d="M1392.38,1269.32a29.82,29.82,0,0,1-9-1.52,7.07,7.07,0,0,1-4.42-4.19c-1-2.2-1.78-5.88-2.46-11l-13.4-95.16c-.55-3.48-1.58-5.18-3.15-5.18-1.29,0-2.51,1.3-3.69,4l-39.61,86.94-39.77-85.87c-1.6-3.45-3-5-4.41-5s-2.57,1.49-3,4.42l-14.59,100.38c-1,7.23-2.93,11.19-5.65,11.75a19,19,0,0,1-4.32.46c-1.89,0-2.84.52-2.84,1.56s.55,2.18,3.14,2.18c1.76,0,4.47-.08,8-.23s5.76-.23,6.54-.23c.58,0,2.73.08,6.39.23s6.72.23,9.07.23c2.67,0,4-.74,4-2.18,0-.71-.46-1.56-2.69-1.56a26.61,26.61,0,0,1-6.08-.76c-2.71-.66-4-2.12-4-4.45a59.93,59.93,0,0,1,.44-7.18l7.57-60.57c6.87,15.22,11.79,26.23,15.06,33.67,2,4.72,7.5,16.19,17,35,3.48,7,4.77,8,5.58,8s2.28-1.06,5.9-8.93l31.87-69.48,8.74,67c.62,5.08-.14,6-.51,6.1-1.53.62-1.86,1.52-1.86,2.16,0,1.65,2.7,2,4.73,2.18,7.44.61,17.5.92,29.93.92,2.87,0,4.32-.74,4.32-2.18C1395.22,1269.84,1394.27,1269.32,1392.38,1269.32Z" transform="translate(-219.33 -614.03)"/>
    <path class="cls-2" d="M1491.66,1269.32a52.36,52.36,0,0,1-7.37-.62c-3.27-.48-5-2.8-5.42-7.1-.39-4.1-.58-15.11-.58-33.68v-27.09c0-18.27.09-29.25.29-32.61.28-5,1.91-7.75,5-8.32a23.6,23.6,0,0,1,4.49-.46c2.27,0,2.6-1.27,2.6-2,0-1.72-2.7-1.72-3.58-1.72-2.06,0-5.33.08-9.74.23s-7.15.23-8.23.23c-1.27,0-4.31-.08-9-.23s-8.15-.23-10.11-.23c-1.72,0-4,.17-4,1.72,0,.92.53,2,3.07,2a21.28,21.28,0,0,1,5,.6c2.84.77,4.36,3.44,4.65,8.18.2,3.36.29,14,.29,32.61v27.09c0,17.74-.25,29-.73,33.59-.47,4.32-1.78,6.74-3.82,7.19-1.54.11-3,.27-4.44.47s-3.68.5-3.68,1.87,1.16,2,3.44,2,5.6-.08,10.25-.23,7.43-.23,8.3-.23,4,.08,9.35.23,9.92.23,13.63.23c2.72,0,3.29-1.1,3.29-2S1494,1269.32,1491.66,1269.32Z" transform="translate(-219.33 -614.03)"/>
    <path class="cls-2" d="M1629.21,1248.07c-.81,0-1.83.48-2.1,2.74a15.92,15.92,0,0,1-3.71,9c-2.44,2.75-8.12,4.15-16.87,4.15-9.26,0-15.15-1.1-17.5-3.26-.88-.79-2-3.13-2.49-9.84-.29-3.68-.44-11.17-.44-22.91v-27.09c0-18.58.1-29.25.3-32.61.28-5,1.93-7.75,5-8.32a30.55,30.55,0,0,1,5.66-.46c2.08,0,3.14-.63,3.14-1.87s-1.2-1.87-3.58-1.87c-2.05,0-5.71.08-10.84.23s-8.22.23-9.19.23-4.08-.08-9-.23-8.68-.23-11.22-.23c-.93,0-3.73,0-3.73,1.87,0,.86.52,1.87,3,1.87,3.61,0,6.19.49,7.67,1.46,1.83,1.25,2.85,3.7,3,7.32.2,3.36.3,14,.3,32.61v27.09c0,17.73-.25,28.75-.74,32.75-.56,4.88-1.87,7.58-3.82,8-1.54.11-3,.27-4.43.47s-3.68.5-3.68,1.87,1.15,2,3.43,2,5.6-.08,10.26-.23,7.42-.23,8.3-.23c3.22,0,9.26.15,18,.46s17,.46,24.9.46a30.5,30.5,0,0,0,5.86-.31c2-.47,3.26-1.88,3.9-4.2a71.07,71.07,0,0,0,2.21-17.84C1630.87,1249.11,1630.32,1248.07,1629.21,1248.07Z" transform="translate(-219.33 -614.03)"/>
    <path class="cls-2" d="M1777.54,1155.7c-.9,0-3.43.08-7.75.23s-6.94.23-8,.23c-1.36,0-3.61-.08-6.68-.23s-5.5-.23-7.17-.23c-2.48,0-3,1-3,1.87s1,1.55,3.25,2.09a3,3,0,0,1,2.5,3.3,20.68,20.68,0,0,1-2,7.78c-7.69,15-15,29-21.67,41.53-16.17-29.53-24.21-44.31-24.58-45.21-1.43-3.1-1.74-4.45-1.74-5a2,2,0,0,1,1.72-2.3c2.55-.73,3.59-1.36,3.59-2.16s-.35-1.87-2.69-1.87-5.53.08-9.16.23-5.83.23-6.61.23c-1.75,0-5.14-.08-10.07-.23s-7.78-.23-8.49-.23c-2.17,0-3.28.63-3.28,1.87,0,.86.47,1.87,2.7,1.87a12.05,12.05,0,0,1,5.94,1.93c3.07,1.81,6.43,5.54,10,11.08,2.46,3.93,7.28,12.06,14.34,24.16,7.32,12.56,11,19,11.54,20.11a41,41,0,0,1,3.35,16v12.63c0,5.71-.15,10.88-.44,15.36-.28,4.77-1.68,7.47-4.12,8-1.52.11-2.94.27-4.3.47-2.54.36-3.66.93-3.66,1.87,0,1.34,1.24,2,3.72,2,2,0,5.28-.08,9.9-.23s7.45-.23,8.52-.23c.88,0,4,.08,9.26.23s9.75.23,13.27.23c2.38,0,3.59-.68,3.59-2,0-.79-.5-1.72-2.87-1.72a53.57,53.57,0,0,1-7.37-.62c-3-.38-4.82-2.31-5.39-5.91-.48-2.63-.73-8.5-.73-17.46V1232.7c0-6.46.73-11.58,2.18-15.21,1.39-3.39,5.88-11.71,13.35-24.74s12.47-21.17,14.81-24.09c3-3.74,5.65-6.24,7.89-7.43a13.33,13.33,0,0,1,6.13-1.79c2.78,0,3.36-1.1,3.36-2C1780.67,1156.27,1779.62,1155.7,1777.54,1155.7Z" transform="translate(-219.33 -614.03)"/>
    <path class="cls-1" d="M580.86,1306.74q-2.36,0-7.33.15c-3.32.11-5.62.15-6.94.15-.72,0-2.77,0-6.16-.15s-6-.15-8-.15c-1.45,0-2.17.3-2.17.92s.56.93,1.67.93a19,19,0,0,1,3.84.3c2.62.62,4,2.58,4.24,5.87q.19,3.39.2,21.81v18.11c0,11.94-.18,19.25-.5,21.92q-.59,5.14-2.85,5.66c-1,.07-2,.17-3,.3-1.44.15-2.16.45-2.16.93,0,.69.65,1,2,1s3.73,0,6.85-.15,5-.16,5.56-.16,2.57,0,6.15.16,6.61.15,9.11.15c1.24,0,1.86-.34,1.86-1,0-.54-.52-.82-1.57-.82a34.75,34.75,0,0,1-5-.41c-2.17-.34-3.44-2.19-3.83-5.56q-.51-4.53-.5-22v-41.15q0-1.65.93-2a12.15,12.15,0,0,1,3.69-.36,13.88,13.88,0,0,1,9.85,4q5.81,5.46,5.8,15.44a18.2,18.2,0,0,1-4.52,12.45q-4,4.53-8.67,4.52c-1.83,0-2.75.38-2.75,1.14,0,.47.4.79,1.18.92a12.38,12.38,0,0,0,2.07.11,23.28,23.28,0,0,0,17.37-7q6.84-7,6.85-17.91a16.43,16.43,0,0,0-4.93-12.24Q593.26,1306.74,580.86,1306.74Z" transform="translate(-219.33 -614.03)"/>
    <path class="cls-1" d="M718.28,1382.56l-2.26-.2q-5.62-1.12-11-7-3.84-4.12-9.55-11.63-1.08-1.23-11.81-15.43,13-11,13-23a17.47,17.47,0,0,0-2.36-8.86,14.94,14.94,0,0,0-4.33-5.24q-6.2-4.42-18.11-4.42-1.49,0-6.84.15c-3.58.11-5.92.15-7,.15-.4,0-2.24,0-5.52-.15s-5.93-.15-8-.15c-1.45,0-2.17.3-2.17.92s.56.93,1.67.93a19,19,0,0,1,3.84.3q3.93.93,4.23,5.87.21,3.39.2,21.81v18.11q0,17.91-.49,21.92c-.39,3.43-1.35,5.32-2.85,5.66-1,.07-2,.17-3,.3-1.45.15-2.16.45-2.16.93,0,.69.65,1,2,1q2.26,0,6.8-.15c3-.11,4.76-.16,5.21-.16l5.67.16q5.46.15,8.8.15c1.32,0,2-.34,2-1,0-.54-.4-.82-1.19-.82a35.36,35.36,0,0,1-4.82-.41q-3.25-.42-3.84-5.62-.5-4.5-.5-21.87v-1.43a.72.72,0,0,1,.79-.82h8.56a2.18,2.18,0,0,1,1.78.72q5.52,7.93,9.75,14.2,8.64,12.45,13.48,15.12c2.29,1.31,5.81,2,10.53,2h9.35c1.25,0,1.88-.34,1.88-1C720,1383,719.39,1382.71,718.28,1382.56Zm-46.07-35a21.93,21.93,0,0,1-7.48-1c-.59-.2-.89-.82-.89-1.85v-31.28a1.34,1.34,0,0,1,.5-1.23q.88-.62,5.61-.62a14,14,0,0,1,9.74,3.91q5.32,5.14,5.32,14.92c0,7.35-1.94,12.48-5.81,15.44C677.69,1347,675.37,1347.58,672.21,1347.58Z" transform="translate(-219.33 -614.03)"/>
    <path class="cls-1" d="M784,1305.3q-20.28,0-31.4,13.57-9.25,11.24-9.25,26.76,0,15.73,9.25,26.95Q763.55,1386,783.05,1386q18.41,0,29.73-12.25,11-11.84,11-29.94,0-17.7-10.73-28.09T784,1305.3Zm17.13,70.07a19.51,19.51,0,0,1-14,5.45q-13.77,0-22.15-11.22Q757,1359,757,1342.44q0-17.49,7.87-25.72,6.21-6.49,16.35-6.48,12.39,0,20.47,10,8.37,10.48,8.36,27.36Q810,1367,801.16,1375.37Z" transform="translate(-219.33 -614.03)"/>
    <path class="cls-1" d="M893.59,1306.74q-2.37,0-7.33.15c-3.32.11-5.63.15-6.94.15-.73,0-2.78,0-6.16-.15s-6-.15-8-.15c-1.44,0-2.16.3-2.16.92s.55.93,1.67.93a19,19,0,0,1,3.84.3q3.93.93,4.23,5.87.21,3.39.2,21.81v18.11q0,17.91-.49,21.92c-.39,3.43-1.35,5.32-2.85,5.66-1,.07-2,.17-3,.3-1.45.15-2.16.45-2.16.93,0,.69.65,1,2,1s3.73,0,6.85-.15,5-.16,5.55-.16,2.58,0,6.16.16,6.61.15,9.1.15c1.25,0,1.87-.34,1.87-1,0-.54-.52-.82-1.57-.82a34.75,34.75,0,0,1-5-.41q-3.25-.51-3.84-5.56-.49-4.53-.49-22v-41.15c0-1.1.3-1.77.93-2a12.15,12.15,0,0,1,3.69-.36,13.88,13.88,0,0,1,9.85,4q5.81,5.46,5.8,15.44a18.16,18.16,0,0,1-4.53,12.45q-4,4.53-8.66,4.52c-1.83,0-2.75.38-2.75,1.14,0,.47.4.79,1.18.92a12.38,12.38,0,0,0,2.07.11,23.28,23.28,0,0,0,17.37-7q6.84-7,6.85-17.91a16.43,16.43,0,0,0-4.93-12.24Q906,1306.74,893.59,1306.74Z" transform="translate(-219.33 -614.03)"/>
    <path class="cls-1" d="M1003.94,1368.89c-.53,0-.89.51-1.08,1.54q-1,6-4.45,7.61c-1.72.83-4.81,1.24-9.29,1.24-4.94,0-8.12-.54-9.54-1.6s-2.19-3.41-2.31-7v-24.08c0-.68.19-1,.59-1q11.26,0,14,.32,4.74.51,5.54,4a26.18,26.18,0,0,1,.4,3.55c0,.72.29,1.07.88,1.07s.89-.64.89-2c0-.69.13-3,.4-6.89.13-2.06.3-3.87.5-5.45.19-1.31.29-2,.29-2.06,0-.56-.23-.82-.69-.82-.27,0-.8.45-1.59,1.33a4.07,4.07,0,0,1-2.17,1.24,17.77,17.77,0,0,1-2.57.31q-2.28.19-15.82.2c-.45,0-.68-.38-.68-1.13v-26c0-.69.23-1,.68-1q10.68,0,14,.41,5.44.72,6.63,3.71a7.55,7.55,0,0,1,.39,1.85c.07.68.15,1.4.25,2.16s.38,1.13.84,1.13.85-.38,1-1.13c.26-2.68.45-5,.54-6.79s.25-3.46.45-4.84c.19-1.17.29-1.78.29-1.86,0-.61-.2-.92-.59-.92a15.2,15.2,0,0,1-1.57.41,26,26,0,0,1-4.23.62q-1.29.11-24.61.1c-.73,0-2.78,0-6.16-.15s-6.05-.15-8-.15c-1.45,0-2.16.3-2.16.92s.55.93,1.67.93a19.11,19.11,0,0,1,3.84.3q3.93.93,4.23,5.87.19,3.39.2,21.81v18.11q0,17.91-.49,21.92-.6,5.14-2.85,5.66c-1,.07-2,.17-3,.3-1.45.15-2.16.45-2.16.93,0,.69.65,1,2,1s3.73,0,6.84-.15,5-.16,5.56-.16c1.18,0,4.6.11,10.24.31s11.32.31,17,.31a11.73,11.73,0,0,0,3.94-.41c.59-.27,1-1,1.38-2.27a47.42,47.42,0,0,0,1.28-11.41C1004.73,1369.5,1004.46,1368.89,1003.94,1368.89Z" transform="translate(-219.33 -614.03)"/>
    <path class="cls-1" d="M1120.78,1382.56l-2.26-.2q-5.62-1.12-11-7-3.84-4.12-9.55-11.63-1.1-1.23-11.81-15.43,13-11,13-23a17.47,17.47,0,0,0-2.36-8.86,14.94,14.94,0,0,0-4.33-5.24q-6.21-4.42-18.11-4.42-1.48,0-6.84.15c-3.58.11-5.92.15-7,.15-.4,0-2.24,0-5.52-.15s-5.94-.15-8-.15c-1.45,0-2.16.3-2.16.92s.55.93,1.67.93a19.11,19.11,0,0,1,3.84.3q3.93.93,4.23,5.87.2,3.39.2,21.81v18.11q0,17.91-.49,21.92-.6,5.14-2.85,5.66c-1,.07-2,.17-3,.3-1.45.15-2.16.45-2.16.93,0,.69.65,1,2,1q2.26,0,6.8-.15c3-.11,4.75-.16,5.21-.16l5.66.16q5.46.15,8.81.15c1.32,0,2-.34,2-1,0-.54-.4-.82-1.18-.82a35.23,35.23,0,0,1-4.82-.41c-2.18-.28-3.45-2.15-3.84-5.62q-.51-4.5-.5-21.87v-1.43a.72.72,0,0,1,.79-.82h8.56a2.18,2.18,0,0,1,1.77.72q5.52,7.93,9.76,14.2,8.64,12.45,13.47,15.12,3.45,2,10.54,2h9.35c1.25,0,1.87-.34,1.87-1C1122.45,1383,1121.89,1382.71,1120.78,1382.56Zm-46.07-35a21.89,21.89,0,0,1-7.48-1c-.59-.2-.89-.82-.89-1.85v-31.28a1.32,1.32,0,0,1,.5-1.23q.89-.62,5.61-.62a14,14,0,0,1,9.74,3.91q5.32,5.14,5.32,14.92c0,7.35-1.94,12.48-5.81,15.44Q1079.44,1347.58,1074.71,1347.58Z" transform="translate(-219.33 -614.03)"/>
    <path class="cls-1" d="M1207.7,1306.12a23.77,23.77,0,0,1-2.65.46,44.34,44.34,0,0,1-6.8.46h-39c-3,0-6.29-.17-9.84-.51a7.89,7.89,0,0,1-2.66-.67,6.19,6.19,0,0,0-1.57-.56c-.47,0-.86.65-1.18,2-1.39,6-2.07,10-2.07,11.83,0,1.1.29,1.65.88,1.65s.89-.41,1.08-1.24a11.91,11.91,0,0,1,1.68-3.6q1.77-2.78,9.55-3l14.66-.41v42.18c0,11.59-.16,18.91-.49,21.92q-.58,5.14-2.86,5.66-1.47.1-2.94.3c-1.45.15-2.18.45-2.18.93,0,.69.66,1,2,1s3.72,0,6.84-.15,5-.16,5.56-.16,2.69,0,6.3.16,6.66.15,9.15.15c1.25,0,1.88-.34,1.88-1,0-.54-.53-.82-1.59-.82a34.85,34.85,0,0,1-5-.41c-2.16-.34-3.45-2.19-3.84-5.56q-.49-4.53-.5-22V1312.5l12.41.31c7.42.2,11.29,2.13,11.61,5.76l.11,1.13c.12,1.37.49,2.06,1.08,2.06s.72-.51.79-1.53.14-3.1.25-6.24.14-5,.14-5.73C1208.49,1306.83,1208.22,1306.12,1207.7,1306.12Z" transform="translate(-219.33 -614.03)"/>
    <path class="cls-1" d="M1275.63,1382.67a34.36,34.36,0,0,1-5-.41q-3.51-.51-3.89-5-.4-4.12-.4-22.54v-18.11q0-18.4.2-21.81c.19-3.49,1.39-5.46,3.6-5.87a17,17,0,0,1,3.06-.3c.94,0,1.41-.34,1.41-1s-.69-.82-2.07-.82-3.55,0-6.49.15-4.8.15-5.52.15-2.87,0-6-.15-5.44-.15-6.74-.15c-1.58,0-2.37.27-2.37.82s.58,1,1.73,1a13.86,13.86,0,0,1,3.39.41q3,.82,3.35,5.76.2,3.39.2,21.81v18.11q0,17.91-.5,22.49c-.33,3-1.27,4.75-2.85,5.09-1,.07-2,.17-3,.3-1.45.15-2.16.45-2.16.93,0,.69.64,1,2,1s3.73,0,6.84-.15,5-.16,5.56-.16,2.68,0,6.25.16,6.62.15,9.11.15c1.24,0,1.87-.34,1.87-1C1277.19,1383,1276.67,1382.67,1275.63,1382.67Z" transform="translate(-219.33 -614.03)"/>
    <path class="cls-1" d="M1365.09,1368.89c-.52,0-.88.51-1.07,1.54q-1,6-4.45,7.61c-1.72.83-4.81,1.24-9.29,1.24-4.94,0-8.12-.54-9.54-1.6s-2.19-3.41-2.32-7v-24.08c0-.68.2-1,.6-1q11.26,0,14,.32c3.16.34,5,1.68,5.53,4a24.61,24.61,0,0,1,.4,3.55c0,.72.3,1.07.89,1.07s.89-.64.89-2c0-.69.13-3,.4-6.89.13-2.06.29-3.87.49-5.45.19-1.31.3-2,.3-2.06,0-.56-.23-.82-.7-.82-.26,0-.79.45-1.58,1.33a4.11,4.11,0,0,1-2.17,1.24,17.75,17.75,0,0,1-2.58.31q-2.26.19-15.81.2c-.46,0-.69-.38-.69-1.13v-26c0-.69.23-1,.69-1q10.68,0,14,.41c3.62.48,5.84,1.72,6.63,3.71a7.55,7.55,0,0,1,.39,1.85c.06.68.15,1.4.25,2.16s.38,1.13.83,1.13.86-.38,1-1.13c.26-2.68.44-5,.54-6.79s.25-3.46.45-4.84c.19-1.17.29-1.78.29-1.86,0-.61-.2-.92-.59-.92.07,0-.46.14-1.57.41a26,26,0,0,1-4.23.62q-1.29.11-24.61.1c-.73,0-2.78,0-6.16-.15s-6-.15-8-.15c-1.45,0-2.16.3-2.16.92s.55.93,1.67.93a19.11,19.11,0,0,1,3.84.3q3.93.93,4.23,5.87.19,3.39.2,21.81v18.11q0,17.91-.5,21.92-.58,5.14-2.85,5.66c-1,.07-2,.17-3,.3-1.45.15-2.16.45-2.16.93,0,.69.64,1,2,1s3.73,0,6.84-.15,5-.16,5.56-.16c1.18,0,4.59.11,10.24.31s11.32.31,17,.31a11.73,11.73,0,0,0,3.94-.41c.59-.27,1-1,1.38-2.27a47.42,47.42,0,0,0,1.28-11.41C1365.89,1369.5,1365.62,1368.89,1365.09,1368.89Z" transform="translate(-219.33 -614.03)"/>
    <path class="cls-1" d="M1446.11,1350.52q-3.66-5.93-12.5-12.92l-2.77-2.16q-6-4.74-8.21-8a11.89,11.89,0,0,1-2.21-6.84,10,10,0,0,1,3.14-7.67q3.15-2.93,8.57-2.93a12.69,12.69,0,0,1,10.72,5,11.25,11.25,0,0,1,2.57,6.79c0,1.24.32,1.86,1,1.86s1.09-1,1.09-3.09c0-3.22,0-6.12.19-8.7s.2-3.79.2-3.65c0-.55-.46-1-1.38-1.24a51.92,51.92,0,0,0-13.09-1.74q-10.14,0-16.44,5.45a17.65,17.65,0,0,0-6.3,14q0,12.46,14.57,24.39l4.53,3.7q9.63,7.93,9.64,16.47a11.09,11.09,0,0,1-3.25,7.92,13.32,13.32,0,0,1-9.94,3.8q-11.12,0-14.08-10.39a19.53,19.53,0,0,1-.88-5.24c0-1.17-.33-1.76-1-1.76s-1,.9-1.19,2.68q-.48,7.92-.49,13.48c0,1.78.63,3,1.88,3.5a34.28,34.28,0,0,0,14.36,2.68q9.45,0,15.65-4.23,9.26-6.27,9.26-17.9A24.88,24.88,0,0,0,1446.11,1350.52Z" transform="translate(-219.33 -614.03)"/>
    <rect class="cls-2" x="1283.53" y="727.66" width="277.82" height="7.88"/>
    <rect class="cls-2" y="727.66" width="277.82" height="7.88"/>
    <path class="cls-1" d="M994.59,614,849.91,729.83V1102H994.59S995.07,654.16,994.59,614Z" transform="translate(-219.33 -614.03)"/>
    <path class="cls-2" d="M1005.41,614l144.68,115.8V1102S1004.93,654.16,1005.41,614Z" transform="translate(-219.33 -614.03)"/>
    <path class="cls-1" d="M1241,795.34l-90.93,72.78V1102H1241S1241.32,820.56,1241,795.34Z" transform="translate(-219.33 -614.03)"/>
    <path class="cls-2" d="M1247.82,795.34l90.93,72.78V1102S1247.52,820.56,1247.82,795.34Z" transform="translate(-219.33 -614.03)"/>
    <path class="cls-1" d="M752.18,795.34l-90.93,72.78V1102h90.93S752.48,820.56,752.18,795.34Z" transform="translate(-219.33 -614.03)"/>
    <path class="cls-2" d="M759,795.34l90.93,72.78V1102S758.68,820.56,759,795.34Z" transform="translate(-219.33 -614.03)"/>
    <path class="cls-2" d="M369.6,1269.32a29.87,29.87,0,0,1-9-1.52,7.09,7.09,0,0,1-4.42-4.19c-.95-2.2-1.78-5.88-2.46-11l-13.4-95.16c-.54-3.48-1.57-5.18-3.14-5.18-1.3,0-2.51,1.3-3.69,4l-39.62,86.94-39.76-85.87c-1.61-3.45-3-5-4.42-5s-2.56,1.49-3,4.42l-14.58,100.38c-1,7.23-2.94,11.19-5.66,11.75a19,19,0,0,1-4.31.46c-1.89,0-2.84.52-2.84,1.56s.54,2.18,3.13,2.18c1.76,0,4.47-.08,8-.23s5.75-.23,6.54-.23c.58,0,2.72.08,6.38.23s6.72.23,9.08.23c2.66,0,4-.74,4-2.18,0-.71-.47-1.56-2.7-1.56a26.46,26.46,0,0,1-6.07-.76c-2.72-.66-4-2.12-4-4.45a57.92,57.92,0,0,1,.44-7.18l7.56-60.57c6.88,15.22,11.79,26.23,15.06,33.67,2,4.72,7.51,16.19,17,35,3.48,7,4.78,8,5.59,8s2.27-1.06,5.9-8.93l31.86-69.48,8.74,67c.62,5.08-.14,6-.5,6.1-1.54.62-1.86,1.52-1.86,2.16,0,1.65,2.7,2,4.73,2.18,7.43.61,17.5.92,29.93.92,2.86,0,4.31-.74,4.31-2.18C372.44,1269.84,371.49,1269.32,369.6,1269.32Z" transform="translate(-219.33 -614.03)"/>
    <path class="cls-2" d="M530.44,1155.7c-2.25,0-5.57.08-9.88.23l-6.88.23c-6.95-.31-12.66-.46-17-.46-2.38,0-3.59.63-3.59,1.87,0,.86.52,1.88,3,1.88a24.31,24.31,0,0,1,5.18.45c3.73.87,5.68,3.6,6,8.34.19,3.43.3,14.72.3,32.65v19.27c0,9.77-.41,17.1-1.18,21.81-1.26,7-3.69,12.37-7.24,16.09-5.18,5.43-11.9,8.18-20,8.18-7.22,0-13.31-2.09-18.1-6.21-7.5-6.46-11.32-19.09-11.32-37.56v-21.58c0-18.61.1-29.29.3-32.65.29-5,1.94-7.76,5.05-8.34a23.81,23.81,0,0,1,4.19-.45c2.34,0,2.84-1,2.84-1.88,0-1.87-2.81-1.87-3.73-1.87-1.86,0-5.11.08-9.67.23s-7.37.23-8.44.23-4.37-.08-9.48-.23-9.19-.23-12-.23c-.93,0-3.72,0-3.72,1.87,0,.86.51,1.87,3,1.87a26.27,26.27,0,0,1,5.64.46c3.72.87,5.67,3.59,5.95,8.32.2,3.36.3,14,.3,32.61v22.48c0,19,4.46,32.89,13.26,41.15,7.52,7.14,18.63,10.76,33,10.76,12.24,0,22.66-3.76,31-11.21,5.65-5.08,9.61-12.21,11.79-21.19,1.58-6.49,2.37-15.08,2.37-25.51v-16.48c0-18.58.09-29.25.29-32.61.29-5,1.94-7.75,5.06-8.32a22.74,22.74,0,0,1,4.18-.46c2.59,0,3.14-1,3.14-1.87C534,1156.33,532.82,1155.7,530.44,1155.7Z" transform="translate(-219.33 -614.03)"/>
    <path class="cls-2" d="M665.36,1248.07c-.81,0-1.83.48-2.1,2.74a15.92,15.92,0,0,1-3.71,9c-2.44,2.75-8.12,4.15-16.87,4.15-9.26,0-15.15-1.1-17.5-3.26-.88-.79-2-3.13-2.49-9.84-.3-3.68-.44-11.17-.44-22.91v-27.09c0-18.58.1-29.25.3-32.61.28-5,1.93-7.75,5-8.32a30.55,30.55,0,0,1,5.66-.46c2.08,0,3.14-.63,3.14-1.87s-1.2-1.87-3.58-1.87c-2.06,0-5.71.08-10.84.23s-8.22.23-9.19.23-4.08-.08-9-.23-8.68-.23-11.22-.23c-.93,0-3.73,0-3.73,1.87,0,.86.52,1.87,3,1.87,3.62,0,6.2.49,7.68,1.46,1.83,1.25,2.85,3.7,3,7.32.2,3.36.29,14,.29,32.61v27.09c0,17.73-.24,28.75-.73,32.75-.56,4.88-1.87,7.58-3.82,8-1.54.11-3,.27-4.43.47s-3.68.5-3.68,1.87,1.15,2,3.43,2,5.6-.08,10.25-.23,7.43-.23,8.31-.23c3.22,0,9.26.15,17.95.46s17,.46,24.91.46a30.5,30.5,0,0,0,5.86-.31c2-.47,3.26-1.88,3.9-4.2a71.07,71.07,0,0,0,2.21-17.84C667,1249.11,666.47,1248.07,665.36,1248.07Z" transform="translate(-219.33 -614.03)"/>
    <path class="cls-2" d="M810.61,1154.86l0-.08h-.45v.48l-.13-.44c-.12,0-.77.16-3.92.64a65,65,0,0,1-10.08.7H737.67c-4.48,0-9.42-.26-14.69-.77a11.1,11.1,0,0,1-3.81-1,7.82,7.82,0,0,0-2.55-.88c-1.26,0-1.89,1.88-2.25,3.31-2.09,9.15-3.1,15-3.1,17.81,0,2.44,1,2.95,1.81,2.95s1.66-.39,2.1-2.23a17.23,17.23,0,0,1,2.44-5.24c1.67-2.61,6.34-4,13.88-4.23l21.45-.6v62.61c0,17.23-.25,28.24-.73,32.75-.57,4.88-1.88,7.58-3.83,8-1.53.11-3,.27-4.43.47-1.58.14-3.68.49-3.68,1.87s1.16,2,3.43,2,5.61-.08,10.26-.23,7.43-.23,8.3-.23,4,.08,9.42.23,10,.23,13.71.23c2.71,0,3.29-1.1,3.29-2s-.5-1.72-2.85-1.72a53,53,0,0,1-7.44-.62c-3-.48-4.77-3.06-5.33-7.88-.49-4.48-.74-15.55-.74-32.9V1165.3l18.06.45c10.75.3,16.44,3.06,16.91,8.18l.14,1.7c.09.87.35,3.52,2.11,3.52,1,0,1.54-.92,1.67-2.75.09-1.52.22-4.67.37-9.35.15-5,.22-7.61.22-8.57S811.81,1155.33,810.61,1154.86Z" transform="translate(-219.33 -614.03)"/>
    <path class="cls-2" d="M911.79,1269.32a52.24,52.24,0,0,1-7.37-.62c-3.28-.48-5-2.8-5.42-7.1-.39-4.1-.58-15.11-.58-33.68v-27.09c0-18.27.09-29.25.28-32.61.29-5,1.92-7.75,5-8.32a23.52,23.52,0,0,1,4.49-.46c2.26,0,2.6-1.27,2.6-2,0-1.72-2.7-1.72-3.59-1.72-2.06,0-5.32.08-9.74.23s-7.15.23-8.22.23c-1.27,0-4.31-.08-9-.23s-8.15-.23-10.11-.23c-1.73,0-4,.17-4,1.72,0,.92.54,2,3.07,2a21.37,21.37,0,0,1,5,.6c2.84.77,4.36,3.44,4.64,8.18.2,3.36.3,14,.3,32.61v27.09c0,17.74-.25,29-.74,33.59-.46,4.32-1.77,6.74-3.82,7.19-1.53.11-3,.27-4.43.47s-3.68.5-3.68,1.87,1.15,2,3.43,2,5.61-.08,10.26-.23,7.42-.23,8.3-.23,4,.08,9.35.23,9.91.23,13.63.23c2.72,0,3.29-1.1,3.29-2S914.13,1269.32,911.79,1269.32Z" transform="translate(-219.33 -614.03)"/>
    <path class="cls-2" d="M1044.76,1154.52l-.43-.06v.49h0l-.21-.36a20.41,20.41,0,0,1-2.19.8,38.92,38.92,0,0,1-6,.61c-2,.1-14.73.15-38.86.15-1.17,0-4.31-.08-9.33-.23s-9.05-.23-11.88-.23c-2.57,0-3.87.68-3.87,2,0,1.15,1,1.72,3,1.72a26.23,26.23,0,0,1,5.63.46c3.73.87,5.67,3.59,6,8.32.2,3.36.29,14,.29,32.61v27.09c0,17.73-.25,28.75-.73,32.75-.56,4.88-1.87,7.58-3.82,8-1.54.11-2.95.27-4.28.47-1.59.14-3.68.49-3.68,1.87s1.2,2,3.57,2c2.09,0,5.4-.08,10.11-.23s7.52-.23,8.6-.23c.77,0,3.84.08,9.12.23s9.74.23,13.27.23c2.47,0,3.72-.68,3.72-2,0-1.15-1-1.72-3-1.72a53.06,53.06,0,0,1-7.35-.62c-3.06-.48-4.83-3.11-5.39-8-.49-4.48-.74-15.49-.74-32.75v-12.46c0-.9.34-.9.54-.9,12.16,0,19.5.15,21.83.46,3.77.48,6.11,2.2,7.12,5.14.2,1.33.46,2.69.74,4,.24,1.54.66,3.33,1.81,3.33,1.31,0,2-1.15,2-3.41,0-3.31.2-7.09.59-11.19.19-1.74.44-3.79.73-6.15.37-2.62.45-3.25.45-3.45,0-1.63-.86-1.86-1.37-1.86-.67,0-1.4.54-2.32,1.72-1.08,1.43-3,2.3-5.77,2.59-.44.1-2.75.15-6.85.15h-18.94c-.2,0-.54,0-.54-.89v-38.21c0-1.65.61-1.65.83-1.65l22.78.46c5,.09,8.13,1.53,9.32,4.28a14.15,14.15,0,0,1,.86,5.61c.14,2.39,1.14,2.89,2,2.89s1.67-.45,2-2.61q.43-7.24.73-12.45c.18-1.49.43-3,.72-4.56a11.56,11.56,0,0,0,.45-2.42C1045.84,1155.07,1045.25,1154.65,1044.76,1154.52Z" transform="translate(-219.33 -614.03)"/>
    <path class="cls-2" d="M1206.05,1269.32a27.46,27.46,0,0,1-6.08-.61c-4.33-1-8.57-6.52-12.61-16.48-15.17-38.94-27.46-70.79-36.53-94.7-1.49-3.56-2.81-5.22-4.13-5.22s-2.89,2.06-4.59,6.47l-37,96.69a36,36,0,0,1-4.78,9.41A10.72,10.72,0,0,1,1093,1269a31.58,31.58,0,0,1-4.5.31c-2,0-2.26,1.08-2.26,1.72,0,.92.57,2,3.29,2,3,0,8.88-.16,17.37-.46,1.46,0,4,.08,7.72.23s6.32.23,7.9.23c2.47,0,3-1.1,3-2s-.47-1.72-2.7-1.72h-2.2c-3.64,0-5.41-1.4-5.41-4.29,0-2.07.73-5.17,2.18-9.23l8-22c.32-.91.72-.91.86-.91h32.85a1,1,0,0,1,1,.75l11.78,32.65a2.66,2.66,0,0,1,.14,2,1.79,1.79,0,0,1-1,.85c-2.07.14-2.51,1.09-2.51,1.87,0,1.07,1.46,1.59,4.89,1.71,6.25.21,15.36.31,27.85.31a30.18,30.18,0,0,0,5.4-.32c1.54-.31,1.86-1.09,1.86-1.7S1208.14,1269.32,1206.05,1269.32Zm-49.46-45.17s-.07.06-.32.06h-27.1a.55.55,0,0,1-.16,0,.69.69,0,0,1,0-.41l13.57-37.94a4.08,4.08,0,0,1,.32-1,3.12,3.12,0,0,1,.37,1.06l13.24,38C1156.58,1224.07,1156.58,1224.15,1156.59,1224.15Z" transform="translate(-219.33 -614.03)"/>
    <path class="cls-2" d="M1392.38,1269.32a29.82,29.82,0,0,1-9-1.52,7.07,7.07,0,0,1-4.42-4.19c-1-2.2-1.78-5.88-2.46-11l-13.4-95.16c-.55-3.48-1.58-5.18-3.15-5.18-1.29,0-2.51,1.3-3.69,4l-39.61,86.94-39.77-85.87c-1.6-3.45-3-5-4.41-5s-2.57,1.49-3,4.42l-14.59,100.38c-1,7.23-2.93,11.19-5.65,11.75a19,19,0,0,1-4.32.46c-1.89,0-2.84.52-2.84,1.56s.55,2.18,3.14,2.18c1.76,0,4.47-.08,8-.23s5.76-.23,6.54-.23c.58,0,2.73.08,6.39.23s6.72.23,9.07.23c2.67,0,4-.74,4-2.18,0-.71-.46-1.56-2.69-1.56a26.61,26.61,0,0,1-6.08-.76c-2.71-.66-4-2.12-4-4.45a59.93,59.93,0,0,1,.44-7.18l7.57-60.57c6.87,15.22,11.79,26.23,15.06,33.67,2,4.72,7.5,16.19,17,35,3.48,7,4.77,8,5.58,8s2.28-1.06,5.9-8.93l31.87-69.48,8.74,67c.62,5.08-.14,6-.51,6.1-1.53.62-1.86,1.52-1.86,2.16,0,1.65,2.7,2,4.73,2.18,7.44.61,17.5.92,29.93.92,2.87,0,4.32-.74,4.32-2.18C1395.22,1269.84,1394.27,1269.32,1392.38,1269.32Z" transform="translate(-219.33 -614.03)"/>
    <path class="cls-2" d="M1491.66,1269.32a52.36,52.36,0,0,1-7.37-.62c-3.27-.48-5-2.8-5.42-7.1-.39-4.1-.58-15.11-.58-33.68v-27.09c0-18.27.09-29.25.29-32.61.28-5,1.91-7.75,5-8.32a23.6,23.6,0,0,1,4.49-.46c2.27,0,2.6-1.27,2.6-2,0-1.72-2.7-1.72-3.58-1.72-2.06,0-5.33.08-9.74.23s-7.15.23-8.23.23c-1.27,0-4.31-.08-9-.23s-8.15-.23-10.11-.23c-1.72,0-4,.17-4,1.72,0,.92.53,2,3.07,2a21.28,21.28,0,0,1,5,.6c2.84.77,4.36,3.44,4.65,8.18.2,3.36.29,14,.29,32.61v27.09c0,17.74-.25,29-.73,33.59-.47,4.32-1.78,6.74-3.82,7.19-1.54.11-3,.27-4.44.47s-3.68.5-3.68,1.87,1.16,2,3.44,2,5.6-.08,10.25-.23,7.43-.23,8.3-.23,4,.08,9.35.23,9.92.23,13.63.23c2.72,0,3.29-1.1,3.29-2S1494,1269.32,1491.66,1269.32Z" transform="translate(-219.33 -614.03)"/>
    <path class="cls-2" d="M1629.21,1248.07c-.81,0-1.83.48-2.1,2.74a15.92,15.92,0,0,1-3.71,9c-2.44,2.75-8.12,4.15-16.87,4.15-9.26,0-15.15-1.1-17.5-3.26-.88-.79-2-3.13-2.49-9.84-.29-3.68-.44-11.17-.44-22.91v-27.09c0-18.58.1-29.25.3-32.61.28-5,1.93-7.75,5-8.32a30.55,30.55,0,0,1,5.66-.46c2.08,0,3.14-.63,3.14-1.87s-1.2-1.87-3.58-1.87c-2.05,0-5.71.08-10.84.23s-8.22.23-9.19.23-4.08-.08-9-.23-8.68-.23-11.22-.23c-.93,0-3.73,0-3.73,1.87,0,.86.52,1.87,3,1.87,3.61,0,6.19.49,7.67,1.46,1.83,1.25,2.85,3.7,3,7.32.2,3.36.3,14,.3,32.61v27.09c0,17.73-.25,28.75-.74,32.75-.56,4.88-1.87,7.58-3.82,8-1.54.11-3,.27-4.43.47s-3.68.5-3.68,1.87,1.15,2,3.43,2,5.6-.08,10.26-.23,7.42-.23,8.3-.23c3.22,0,9.26.15,18,.46s17,.46,24.9.46a30.5,30.5,0,0,0,5.86-.31c2-.47,3.26-1.88,3.9-4.2a71.07,71.07,0,0,0,2.21-17.84C1630.87,1249.11,1630.32,1248.07,1629.21,1248.07Z" transform="translate(-219.33 -614.03)"/>
    <path class="cls-2" d="M1777.54,1155.7c-.9,0-3.43.08-7.75.23s-6.94.23-8,.23c-1.36,0-3.61-.08-6.68-.23s-5.5-.23-7.17-.23c-2.48,0-3,1-3,1.87s1,1.55,3.25,2.09a3,3,0,0,1,2.5,3.3,20.68,20.68,0,0,1-2,7.78c-7.69,15-15,29-21.67,41.53-16.17-29.53-24.21-44.31-24.58-45.21-1.43-3.1-1.74-4.45-1.74-5a2,2,0,0,1,1.72-2.3c2.55-.73,3.59-1.36,3.59-2.16s-.35-1.87-2.69-1.87-5.53.08-9.16.23-5.83.23-6.61.23c-1.75,0-5.14-.08-10.07-.23s-7.78-.23-8.49-.23c-2.17,0-3.28.63-3.28,1.87,0,.86.47,1.87,2.7,1.87a12.05,12.05,0,0,1,5.94,1.93c3.07,1.81,6.43,5.54,10,11.08,2.46,3.93,7.28,12.06,14.34,24.16,7.32,12.56,11,19,11.54,20.11a41,41,0,0,1,3.35,16v12.63c0,5.71-.15,10.88-.44,15.36-.28,4.77-1.68,7.47-4.12,8-1.52.11-2.94.27-4.3.47-2.54.36-3.66.93-3.66,1.87,0,1.34,1.24,2,3.72,2,2,0,5.28-.08,9.9-.23s7.45-.23,8.52-.23c.88,0,4,.08,9.26.23s9.75.23,13.27.23c2.38,0,3.59-.68,3.59-2,0-.79-.5-1.72-2.87-1.72a53.57,53.57,0,0,1-7.37-.62c-3-.38-4.82-2.31-5.39-5.91-.48-2.63-.73-8.5-.73-17.46V1232.7c0-6.46.73-11.58,2.18-15.21,1.39-3.39,5.88-11.71,13.35-24.74s12.47-21.17,14.81-24.09c3-3.74,5.65-6.24,7.89-7.43a13.33,13.33,0,0,1,6.13-1.79c2.78,0,3.36-1.1,3.36-2C1780.67,1156.27,1779.62,1155.7,1777.54,1155.7Z" transform="translate(-219.33 -614.03)"/>
    <path class="cls-1" d="M580.86,1306.74q-2.36,0-7.33.15c-3.32.11-5.62.15-6.94.15-.72,0-2.77,0-6.16-.15s-6-.15-8-.15c-1.45,0-2.17.3-2.17.92s.56.93,1.67.93a19,19,0,0,1,3.84.3c2.62.62,4,2.58,4.24,5.87q.19,3.39.2,21.81v18.11c0,11.94-.18,19.25-.5,21.92q-.59,5.14-2.85,5.66c-1,.07-2,.17-3,.3-1.44.15-2.16.45-2.16.93,0,.69.65,1,2,1s3.73,0,6.85-.15,5-.16,5.56-.16,2.57,0,6.15.16,6.61.15,9.11.15c1.24,0,1.86-.34,1.86-1,0-.54-.52-.82-1.57-.82a34.75,34.75,0,0,1-5-.41c-2.17-.34-3.44-2.19-3.83-5.56q-.51-4.53-.5-22v-41.15q0-1.65.93-2a12.15,12.15,0,0,1,3.69-.36,13.88,13.88,0,0,1,9.85,4q5.81,5.46,5.8,15.44a18.2,18.2,0,0,1-4.52,12.45q-4,4.53-8.67,4.52c-1.83,0-2.75.38-2.75,1.14,0,.47.4.79,1.18.92a12.38,12.38,0,0,0,2.07.11,23.28,23.28,0,0,0,17.37-7q6.84-7,6.85-17.91a16.43,16.43,0,0,0-4.93-12.24Q593.26,1306.74,580.86,1306.74Z" transform="translate(-219.33 -614.03)"/>
    <path class="cls-1" d="M718.28,1382.56l-2.26-.2q-5.62-1.12-11-7-3.84-4.12-9.55-11.63-1.08-1.23-11.81-15.43,13-11,13-23a17.47,17.47,0,0,0-2.36-8.86,14.94,14.94,0,0,0-4.33-5.24q-6.2-4.42-18.11-4.42-1.49,0-6.84.15c-3.58.11-5.92.15-7,.15-.4,0-2.24,0-5.52-.15s-5.93-.15-8-.15c-1.45,0-2.17.3-2.17.92s.56.93,1.67.93a19,19,0,0,1,3.84.3q3.93.93,4.23,5.87.21,3.39.2,21.81v18.11q0,17.91-.49,21.92c-.39,3.43-1.35,5.32-2.85,5.66-1,.07-2,.17-3,.3-1.45.15-2.16.45-2.16.93,0,.69.65,1,2,1q2.26,0,6.8-.15c3-.11,4.76-.16,5.21-.16l5.67.16q5.46.15,8.8.15c1.32,0,2-.34,2-1,0-.54-.4-.82-1.19-.82a35.36,35.36,0,0,1-4.82-.41q-3.25-.42-3.84-5.62-.5-4.5-.5-21.87v-1.43a.72.72,0,0,1,.79-.82h8.56a2.18,2.18,0,0,1,1.78.72q5.52,7.93,9.75,14.2,8.64,12.45,13.48,15.12c2.29,1.31,5.81,2,10.53,2h9.35c1.25,0,1.88-.34,1.88-1C720,1383,719.39,1382.71,718.28,1382.56Zm-46.07-35a21.93,21.93,0,0,1-7.48-1c-.59-.2-.89-.82-.89-1.85v-31.28a1.34,1.34,0,0,1,.5-1.23q.88-.62,5.61-.62a14,14,0,0,1,9.74,3.91q5.32,5.14,5.32,14.92c0,7.35-1.94,12.48-5.81,15.44C677.69,1347,675.37,1347.58,672.21,1347.58Z" transform="translate(-219.33 -614.03)"/>
    <path class="cls-1" d="M784,1305.3q-20.28,0-31.4,13.57-9.25,11.24-9.25,26.76,0,15.73,9.25,26.95Q763.55,1386,783.05,1386q18.41,0,29.73-12.25,11-11.84,11-29.94,0-17.7-10.73-28.09T784,1305.3Zm17.13,70.07a19.51,19.51,0,0,1-14,5.45q-13.77,0-22.15-11.22Q757,1359,757,1342.44q0-17.49,7.87-25.72,6.21-6.49,16.35-6.48,12.39,0,20.47,10,8.37,10.48,8.36,27.36Q810,1367,801.16,1375.37Z" transform="translate(-219.33 -614.03)"/>
    <path class="cls-1" d="M893.59,1306.74q-2.37,0-7.33.15c-3.32.11-5.63.15-6.94.15-.73,0-2.78,0-6.16-.15s-6-.15-8-.15c-1.44,0-2.16.3-2.16.92s.55.93,1.67.93a19,19,0,0,1,3.84.3q3.93.93,4.23,5.87.21,3.39.2,21.81v18.11q0,17.91-.49,21.92c-.39,3.43-1.35,5.32-2.85,5.66-1,.07-2,.17-3,.3-1.45.15-2.16.45-2.16.93,0,.69.65,1,2,1s3.73,0,6.85-.15,5-.16,5.55-.16,2.58,0,6.16.16,6.61.15,9.1.15c1.25,0,1.87-.34,1.87-1,0-.54-.52-.82-1.57-.82a34.75,34.75,0,0,1-5-.41q-3.25-.51-3.84-5.56-.49-4.53-.49-22v-41.15c0-1.1.3-1.77.93-2a12.15,12.15,0,0,1,3.69-.36,13.88,13.88,0,0,1,9.85,4q5.81,5.46,5.8,15.44a18.16,18.16,0,0,1-4.53,12.45q-4,4.53-8.66,4.52c-1.83,0-2.75.38-2.75,1.14,0,.47.4.79,1.18.92a12.38,12.38,0,0,0,2.07.11,23.28,23.28,0,0,0,17.37-7q6.84-7,6.85-17.91a16.43,16.43,0,0,0-4.93-12.24Q906,1306.74,893.59,1306.74Z" transform="translate(-219.33 -614.03)"/>
    <path class="cls-1" d="M1003.94,1368.89c-.53,0-.89.51-1.08,1.54q-1,6-4.45,7.61c-1.72.83-4.81,1.24-9.29,1.24-4.94,0-8.12-.54-9.54-1.6s-2.19-3.41-2.31-7v-24.08c0-.68.19-1,.59-1q11.26,0,14,.32,4.74.51,5.54,4a26.18,26.18,0,0,1,.4,3.55c0,.72.29,1.07.88,1.07s.89-.64.89-2c0-.69.13-3,.4-6.89.13-2.06.3-3.87.5-5.45.19-1.31.29-2,.29-2.06,0-.56-.23-.82-.69-.82-.27,0-.8.45-1.59,1.33a4.07,4.07,0,0,1-2.17,1.24,17.77,17.77,0,0,1-2.57.31q-2.28.19-15.82.2c-.45,0-.68-.38-.68-1.13v-26c0-.69.23-1,.68-1q10.68,0,14,.41,5.44.72,6.63,3.71a7.55,7.55,0,0,1,.39,1.85c.07.68.15,1.4.25,2.16s.38,1.13.84,1.13.85-.38,1-1.13c.26-2.68.45-5,.54-6.79s.25-3.46.45-4.84c.19-1.17.29-1.78.29-1.86,0-.61-.2-.92-.59-.92a15.2,15.2,0,0,1-1.57.41,26,26,0,0,1-4.23.62q-1.29.11-24.61.1c-.73,0-2.78,0-6.16-.15s-6.05-.15-8-.15c-1.45,0-2.16.3-2.16.92s.55.93,1.67.93a19.11,19.11,0,0,1,3.84.3q3.93.93,4.23,5.87.19,3.39.2,21.81v18.11q0,17.91-.49,21.92-.6,5.14-2.85,5.66c-1,.07-2,.17-3,.3-1.45.15-2.16.45-2.16.93,0,.69.65,1,2,1s3.73,0,6.84-.15,5-.16,5.56-.16c1.18,0,4.6.11,10.24.31s11.32.31,17,.31a11.73,11.73,0,0,0,3.94-.41c.59-.27,1-1,1.38-2.27a47.42,47.42,0,0,0,1.28-11.41C1004.73,1369.5,1004.46,1368.89,1003.94,1368.89Z" transform="translate(-219.33 -614.03)"/>
    <path class="cls-1" d="M1120.78,1382.56l-2.26-.2q-5.62-1.12-11-7-3.84-4.12-9.55-11.63-1.1-1.23-11.81-15.43,13-11,13-23a17.47,17.47,0,0,0-2.36-8.86,14.94,14.94,0,0,0-4.33-5.24q-6.21-4.42-18.11-4.42-1.48,0-6.84.15c-3.58.11-5.92.15-7,.15-.4,0-2.24,0-5.52-.15s-5.94-.15-8-.15c-1.45,0-2.16.3-2.16.92s.55.93,1.67.93a19.11,19.11,0,0,1,3.84.3q3.93.93,4.23,5.87.2,3.39.2,21.81v18.11q0,17.91-.49,21.92-.6,5.14-2.85,5.66c-1,.07-2,.17-3,.3-1.45.15-2.16.45-2.16.93,0,.69.65,1,2,1q2.26,0,6.8-.15c3-.11,4.75-.16,5.21-.16l5.66.16q5.46.15,8.81.15c1.32,0,2-.34,2-1,0-.54-.4-.82-1.18-.82a35.23,35.23,0,0,1-4.82-.41c-2.18-.28-3.45-2.15-3.84-5.62q-.51-4.5-.5-21.87v-1.43a.72.72,0,0,1,.79-.82h8.56a2.18,2.18,0,0,1,1.77.72q5.52,7.93,9.76,14.2,8.64,12.45,13.47,15.12,3.45,2,10.54,2h9.35c1.25,0,1.87-.34,1.87-1C1122.45,1383,1121.89,1382.71,1120.78,1382.56Zm-46.07-35a21.89,21.89,0,0,1-7.48-1c-.59-.2-.89-.82-.89-1.85v-31.28a1.32,1.32,0,0,1,.5-1.23q.89-.62,5.61-.62a14,14,0,0,1,9.74,3.91q5.32,5.14,5.32,14.92c0,7.35-1.94,12.48-5.81,15.44Q1079.44,1347.58,1074.71,1347.58Z" transform="translate(-219.33 -614.03)"/>
    <path class="cls-1" d="M1207.7,1306.12a23.77,23.77,0,0,1-2.65.46,44.34,44.34,0,0,1-6.8.46h-39c-3,0-6.29-.17-9.84-.51a7.89,7.89,0,0,1-2.66-.67,6.19,6.19,0,0,0-1.57-.56c-.47,0-.86.65-1.18,2-1.39,6-2.07,10-2.07,11.83,0,1.1.29,1.65.88,1.65s.89-.41,1.08-1.24a11.91,11.91,0,0,1,1.68-3.6q1.77-2.78,9.55-3l14.66-.41v42.18c0,11.59-.16,18.91-.49,21.92q-.58,5.14-2.86,5.66-1.47.1-2.94.3c-1.45.15-2.18.45-2.18.93,0,.69.66,1,2,1s3.72,0,6.84-.15,5-.16,5.56-.16,2.69,0,6.3.16,6.66.15,9.15.15c1.25,0,1.88-.34,1.88-1,0-.54-.53-.82-1.59-.82a34.85,34.85,0,0,1-5-.41c-2.16-.34-3.45-2.19-3.84-5.56q-.49-4.53-.5-22V1312.5l12.41.31c7.42.2,11.29,2.13,11.61,5.76l.11,1.13c.12,1.37.49,2.06,1.08,2.06s.72-.51.79-1.53.14-3.1.25-6.24.14-5,.14-5.73C1208.49,1306.83,1208.22,1306.12,1207.7,1306.12Z" transform="translate(-219.33 -614.03)"/>
    <path class="cls-1" d="M1275.63,1382.67a34.36,34.36,0,0,1-5-.41q-3.51-.51-3.89-5-.4-4.12-.4-22.54v-18.11q0-18.4.2-21.81c.19-3.49,1.39-5.46,3.6-5.87a17,17,0,0,1,3.06-.3c.94,0,1.41-.34,1.41-1s-.69-.82-2.07-.82-3.55,0-6.49.15-4.8.15-5.52.15-2.87,0-6-.15-5.44-.15-6.74-.15c-1.58,0-2.37.27-2.37.82s.58,1,1.73,1a13.86,13.86,0,0,1,3.39.41q3,.82,3.35,5.76.2,3.39.2,21.81v18.11q0,17.91-.5,22.49c-.33,3-1.27,4.75-2.85,5.09-1,.07-2,.17-3,.3-1.45.15-2.16.45-2.16.93,0,.69.64,1,2,1s3.73,0,6.84-.15,5-.16,5.56-.16,2.68,0,6.25.16,6.62.15,9.11.15c1.24,0,1.87-.34,1.87-1C1277.19,1383,1276.67,1382.67,1275.63,1382.67Z" transform="translate(-219.33 -614.03)"/>
    <path class="cls-1" d="M1365.09,1368.89c-.52,0-.88.51-1.07,1.54q-1,6-4.45,7.61c-1.72.83-4.81,1.24-9.29,1.24-4.94,0-8.12-.54-9.54-1.6s-2.19-3.41-2.32-7v-24.08c0-.68.2-1,.6-1q11.26,0,14,.32c3.16.34,5,1.68,5.53,4a24.61,24.61,0,0,1,.4,3.55c0,.72.3,1.07.89,1.07s.89-.64.89-2c0-.69.13-3,.4-6.89.13-2.06.29-3.87.49-5.45.19-1.31.3-2,.3-2.06,0-.56-.23-.82-.7-.82-.26,0-.79.45-1.58,1.33a4.11,4.11,0,0,1-2.17,1.24,17.75,17.75,0,0,1-2.58.31q-2.26.19-15.81.2c-.46,0-.69-.38-.69-1.13v-26c0-.69.23-1,.69-1q10.68,0,14,.41c3.62.48,5.84,1.72,6.63,3.71a7.55,7.55,0,0,1,.39,1.85c.06.68.15,1.4.25,2.16s.38,1.13.83,1.13.86-.38,1-1.13c.26-2.68.44-5,.54-6.79s.25-3.46.45-4.84c.19-1.17.29-1.78.29-1.86,0-.61-.2-.92-.59-.92.07,0-.46.14-1.57.41a26,26,0,0,1-4.23.62q-1.29.11-24.61.1c-.73,0-2.78,0-6.16-.15s-6-.15-8-.15c-1.45,0-2.16.3-2.16.92s.55.93,1.67.93a19.11,19.11,0,0,1,3.84.3q3.93.93,4.23,5.87.19,3.39.2,21.81v18.11q0,17.91-.5,21.92-.58,5.14-2.85,5.66c-1,.07-2,.17-3,.3-1.45.15-2.16.45-2.16.93,0,.69.64,1,2,1s3.73,0,6.84-.15,5-.16,5.56-.16c1.18,0,4.59.11,10.24.31s11.32.31,17,.31a11.73,11.73,0,0,0,3.94-.41c.59-.27,1-1,1.38-2.27a47.42,47.42,0,0,0,1.28-11.41C1365.89,1369.5,1365.62,1368.89,1365.09,1368.89Z" transform="translate(-219.33 -614.03)"/>
    <path class="cls-1" d="M1446.11,1350.52q-3.66-5.93-12.5-12.92l-2.77-2.16q-6-4.74-8.21-8a11.89,11.89,0,0,1-2.21-6.84,10,10,0,0,1,3.14-7.67q3.15-2.93,8.57-2.93a12.69,12.69,0,0,1,10.72,5,11.25,11.25,0,0,1,2.57,6.79c0,1.24.32,1.86,1,1.86s1.09-1,1.09-3.09c0-3.22,0-6.12.19-8.7s.2-3.79.2-3.65c0-.55-.46-1-1.38-1.24a51.92,51.92,0,0,0-13.09-1.74q-10.14,0-16.44,5.45a17.65,17.65,0,0,0-6.3,14q0,12.46,14.57,24.39l4.53,3.7q9.63,7.93,9.64,16.47a11.09,11.09,0,0,1-3.25,7.92,13.32,13.32,0,0,1-9.94,3.8q-11.12,0-14.08-10.39a19.53,19.53,0,0,1-.88-5.24c0-1.17-.33-1.76-1-1.76s-1,.9-1.19,2.68q-.48,7.92-.49,13.48c0,1.78.63,3,1.88,3.5a34.28,34.28,0,0,0,14.36,2.68q9.45,0,15.65-4.23,9.26-6.27,9.26-17.9A24.88,24.88,0,0,0,1446.11,1350.52Z" transform="translate(-219.33 -614.03)"/>
    <rect class="cls-2" x="1283.53" y="727.66" width="277.82" height="7.88"/>
    <rect class="cls-2" y="727.66" width="277.82" height="7.88"/>
</svg>
