<svg id="Layer_1" data-name="Layer 1" xmlns="http://www.w3.org/2000/svg" viewBox="0 0 1702.71 323.26">
    <defs>
        <style>.cls-1{fill:#e7a800;}.cls-2{fill:#fff;}</style>
    </defs>
    <path class="cls-1" d="M369.46,838.37l-95.85,76.71v246.55h95.85S369.77,865,369.46,838.37Z" transform="translate(-148.65 -838.37)"/>
    <path class="cls-2" d="M376.62,838.37l95.84,76.71v246.55S376.3,865,376.62,838.37Z" transform="translate(-148.65 -838.37)"/>
    <path class="cls-1" d="M532.69,958.47l-60.23,48.21v155h60.23S532.89,975.18,532.69,958.47Z" transform="translate(-148.65 -838.37)"/>
    <path class="cls-2" d="M537.19,958.47l60.24,48.21v155S537,975.18,537.19,958.47Z" transform="translate(-148.65 -838.37)"/>
    <path class="cls-1" d="M208.88,958.47l-60.23,48.21v155h60.23S209.08,975.18,208.88,958.47Z" transform="translate(-148.65 -838.37)"/>
    <path class="cls-2" d="M213.38,958.47l60.23,48.21v155S213.18,975.18,213.38,958.47Z" transform="translate(-148.65 -838.37)"/>
    <path class="cls-2" d="M789.32,1063.63a22.43,22.43,0,0,1-6.76-1.14,5.34,5.34,0,0,1-3.33-3.15,34.13,34.13,0,0,1-1.85-8.25l-10.09-71.62c-.41-2.63-1.18-3.9-2.36-3.9-1,0-1.89,1-2.78,3L732.33,1044,702.4,979.37c-1.2-2.6-2.26-3.8-3.32-3.8s-1.93,1.11-2.25,3.32l-11,75.55c-.78,5.45-2.21,8.43-4.25,8.85a14.54,14.54,0,0,1-3.25.34c-1.42,0-2.14.4-2.14,1.18s.41,1.64,2.36,1.64c1.33,0,3.37-.06,6.06-.18s4.33-.17,4.92-.17,2.05.06,4.8.17,5.06.18,6.83.18c2,0,3-.56,3-1.64,0-.54-.35-1.18-2-1.18a19.77,19.77,0,0,1-4.57-.57c-2-.5-3-1.59-3-3.35a43.15,43.15,0,0,1,.33-5.4l5.7-45.59c5.17,11.45,8.87,19.74,11.33,25.34,1.47,3.55,5.65,12.18,12.76,26.38,2.62,5.3,3.6,6,4.21,6s1.71-.8,4.44-6.72l24-52.3,6.58,50.47c.47,3.83-.11,4.49-.38,4.59-1.16.47-1.4,1.14-1.4,1.62,0,1.25,2,1.53,3.56,1.65,5.59.46,13.17.69,22.53.69,2.15,0,3.24-.56,3.24-1.64C791.45,1064,790.74,1063.63,789.32,1063.63Z" transform="translate(-148.65 -838.37)"/>
    <path class="cls-2" d="M910.37,978.12c-1.69,0-4.2.06-7.44.17s-5,.17-5.18.17c-5.23-.23-9.52-.34-12.76-.34-1.79,0-2.7.47-2.7,1.41,0,.64.39,1.41,2.26,1.41a18.06,18.06,0,0,1,3.9.34c2.8.66,4.27,2.71,4.49,6.27.14,2.59.22,11.09.22,24.58v14.51a111.78,111.78,0,0,1-.88,16.41c-.95,5.24-2.78,9.31-5.45,12.11a20,20,0,0,1-15,6.16,20.23,20.23,0,0,1-13.63-4.68c-5.64-4.86-8.51-14.36-8.51-28.27v-16.24c0-14,.07-22,.22-24.58.22-3.78,1.46-5.84,3.8-6.27a17.59,17.59,0,0,1,3.15-.34c1.77,0,2.14-.77,2.14-1.41,0-1.41-2.11-1.41-2.81-1.41-1.39,0-3.84.06-7.27.17s-5.55.17-6.36.17-3.28-.05-7.13-.17-6.92-.17-9.06-.17c-.69,0-2.8,0-2.8,1.41,0,.64.39,1.4,2.25,1.4a19.86,19.86,0,0,1,4.24.35c2.8.66,4.27,2.7,4.48,6.26.15,2.53.23,10.56.23,24.55V1029c0,14.34,3.35,24.76,10,31,5.67,5.37,14,8.09,24.87,8.09,9.21,0,17-2.83,23.3-8.43,4.25-3.83,7.23-9.19,8.88-16a84.89,84.89,0,0,0,1.77-19.2v-12.4c0-14,.08-22,.23-24.55.21-3.79,1.45-5.83,3.8-6.26a17.43,17.43,0,0,1,3.15-.35c1.95,0,2.36-.76,2.36-1.4Q913.07,978.12,910.37,978.12Z" transform="translate(-148.65 -838.37)"/>
    <path class="cls-2" d="M1011.92,1047.64c-.61,0-1.38.36-1.59,2.06a11.93,11.93,0,0,1-2.79,6.75c-1.83,2.08-6.11,3.12-12.69,3.12-7,0-11.4-.82-13.18-2.45-.66-.59-1.51-2.35-1.87-7.4-.22-2.77-.33-8.41-.33-17.24v-20.39c0-14,.07-22,.22-24.55.22-3.79,1.46-5.83,3.8-6.26a23.27,23.27,0,0,1,4.26-.35c1.56,0,2.36-.47,2.36-1.4s-.9-1.41-2.69-1.41c-1.55,0-4.3.06-8.16.17s-6.19.17-6.92.17-3.07-.05-6.74-.17-6.53-.17-8.45-.17c-.69,0-2.8,0-2.8,1.41,0,.64.39,1.4,2.25,1.4,2.72,0,4.66.37,5.78,1.1,1.37.94,2.14,2.79,2.28,5.51.15,2.53.22,10.56.22,24.55v20.39c0,13.34-.19,21.63-.55,24.64-.43,3.67-1.41,5.71-2.88,6.05-1.15.08-2.25.2-3.34.35s-2.76.38-2.76,1.41.86,1.52,2.58,1.52,4.22-.06,7.72-.18,5.59-.17,6.25-.17c2.42,0,7,.12,13.51.35s12.79.35,18.75.35a22.53,22.53,0,0,0,4.41-.24,4,4,0,0,0,2.93-3.16,53.31,53.31,0,0,0,1.67-13.43C1013.17,1048.42,1012.75,1047.64,1011.92,1047.64Z" transform="translate(-148.65 -838.37)"/>
    <path class="cls-2" d="M1121.24,977.49l0-.07h-.33v.37l-.1-.34c-.09,0-.59.12-3,.49a49.89,49.89,0,0,1-7.59.52h-43.91c-3.37,0-7.09-.19-11-.58a8.48,8.48,0,0,1-2.87-.72,5.91,5.91,0,0,0-1.93-.67c-.94,0-1.42,1.41-1.69,2.49-1.57,6.89-2.33,11.28-2.33,13.41,0,1.84.74,2.22,1.36,2.22s1.25-.29,1.58-1.68a13,13,0,0,1,1.84-3.94c1.25-2,4.77-3,10.44-3.19l16.15-.45v47.13c0,13-.18,21.25-.55,24.64-.42,3.67-1.41,5.71-2.88,6.05-1.15.08-2.28.2-3.33.35s-2.77.37-2.77,1.41.87,1.52,2.58,1.52,4.22-.06,7.72-.18,5.59-.17,6.25-.17,3,.06,7.09.17,7.51.18,10.31.18c2,0,2.48-.83,2.48-1.52s-.38-1.3-2.15-1.3a39.56,39.56,0,0,1-5.59-.46c-2.28-.36-3.6-2.31-4-5.94-.38-3.37-.56-11.7-.56-24.75V985.34l13.59.34c8.09.23,12.38,2.3,12.73,6.16l.11,1.28c.06.65.25,2.65,1.58,2.65.74,0,1.16-.7,1.26-2.08.07-1.14.16-3.5.28-7,.11-3.8.16-5.73.16-6.45S1122.14,977.84,1121.24,977.49Z" transform="translate(-148.65 -838.37)"/>
    <path class="cls-2" d="M1197.39,1063.63a39.16,39.16,0,0,1-5.55-.46c-2.46-.36-3.8-2.11-4.08-5.35-.29-3.08-.44-11.37-.44-25.34v-20.39c0-13.75.08-22,.22-24.55.22-3.79,1.44-5.83,3.76-6.26a18.06,18.06,0,0,1,3.38-.35c1.71,0,2-.95,2-1.52,0-1.29-2-1.29-2.7-1.29-1.55,0-4,.06-7.33.17s-5.38.17-6.19.17c-1,0-3.25-.05-6.8-.17s-6.14-.17-7.62-.17c-1.29,0-3,.13-3,1.29,0,.7.4,1.52,2.31,1.52a16.33,16.33,0,0,1,3.73.45c2.13.58,3.28,2.59,3.49,6.16.15,2.53.22,10.56.22,24.55v20.39c0,13.35-.18,21.85-.55,25.28-.35,3.25-1.33,5.07-2.88,5.41-1.15.08-2.25.2-3.33.35s-2.77.38-2.77,1.41.87,1.52,2.58,1.52,4.22-.06,7.72-.18,5.59-.17,6.25-.17,3,.06,7,.17,7.46.18,10.26.18c2,0,2.47-.83,2.47-1.52S1199.15,1063.63,1197.39,1063.63Z" transform="translate(-148.65 -838.37)"/>
    <path class="cls-2" d="M1297.47,977.23l-.33,0v.36s0,0,0,0l-.16-.27a16.11,16.11,0,0,1-1.65.6,29.49,29.49,0,0,1-4.51.46c-1.51.08-11.08.11-29.25.11-.88,0-3.24-.05-7-.17s-6.81-.17-8.94-.17c-1.94,0-2.91.51-2.91,1.52s.75,1.29,2.24,1.29a19.8,19.8,0,0,1,4.24.35c2.81.66,4.27,2.7,4.49,6.26.15,2.53.22,10.56.22,24.55v20.39c0,13.34-.19,21.63-.55,24.64-.43,3.67-1.41,5.71-2.88,6.05-1.16.08-2.22.2-3.22.35-1.19.11-2.77.37-2.77,1.41s.9,1.52,2.69,1.52c1.57,0,4.06-.06,7.61-.18s5.66-.17,6.47-.17c.58,0,2.89.06,6.87.17s7.33.18,10,.18c1.86,0,2.8-.51,2.8-1.52s-.76-1.3-2.27-1.3a39.72,39.72,0,0,1-5.53-.46c-2.3-.36-3.63-2.34-4-6.05-.37-3.37-.56-11.66-.56-24.64v-9.39c0-.67.26-.67.41-.67,9.15,0,14.68.11,16.43.34,2.84.37,4.6,1.66,5.36,3.87.15,1,.34,2,.56,3,.18,1.17.49,2.51,1.36,2.51s1.48-.86,1.48-2.56c0-2.5.16-5.34.45-8.43.14-1.31.33-2.85.55-4.62.28-2,.34-2.45.34-2.6,0-1.23-.65-1.41-1-1.41s-1.06.41-1.75,1.3c-.82,1.08-2.26,1.73-4.34,1.95-.33.07-2.07.11-5.16.11h-14.25c-.15,0-.41,0-.41-.67V986.46c0-1.24.46-1.24.62-1.24l17.15.35c3.76.07,6.12,1.15,7,3.22a10.66,10.66,0,0,1,.64,4.22c.11,1.8.86,2.18,1.47,2.18s1.26-.34,1.48-2c.22-3.63.4-6.76.55-9.37.14-1.12.33-2.28.55-3.43a8.58,8.58,0,0,0,.34-1.82C1298.29,977.65,1297.84,977.33,1297.47,977.23Z" transform="translate(-148.65 -838.37)"/>
    <path class="cls-2" d="M1418.87,1063.63a20.14,20.14,0,0,1-4.58-.46c-3.26-.73-6.45-4.9-9.49-12.4-11.42-29.31-20.67-53.28-27.5-71.27-1.12-2.69-2.11-3.93-3.11-3.93s-2.17,1.54-3.45,4.87l-27.82,72.77a27,27,0,0,1-3.61,7.08,8,8,0,0,1-5.52,3.11,25,25,0,0,1-3.39.23c-1.47,0-1.7.81-1.7,1.3,0,.69.43,1.52,2.48,1.52,2.28,0,6.68-.12,13.08-.35,1.09,0,3,.06,5.81.17s4.75.18,5.94.18c1.86,0,2.25-.83,2.25-1.52s-.35-1.3-2-1.3h-1.66c-2.74,0-4.07-1.05-4.07-3.22a23.1,23.1,0,0,1,1.64-7l6-16.57c.25-.68.55-.68.65-.68h24.73a.76.76,0,0,1,.76.56l8.86,24.58a1.94,1.94,0,0,1,.1,1.53,1.31,1.31,0,0,1-.78.64c-1.55.11-1.88.82-1.88,1.41,0,.81,1.09,1.19,3.68,1.29,4.7.15,11.55.23,21,.23a22.51,22.51,0,0,0,4.06-.24c1.16-.24,1.4-.83,1.4-1.28S1420.44,1063.63,1418.87,1063.63Zm-37.23-34a.48.48,0,0,1-.24,0H1361a.35.35,0,0,1-.12,0s0-.07,0-.3l10.22-28.56a2.54,2.54,0,0,1,.24-.74,2.29,2.29,0,0,1,.27.79l10,28.61A1.32,1.32,0,0,0,1381.64,1029.64Z" transform="translate(-148.65 -838.37)"/>
    <path class="cls-2" d="M1559.1,1063.63a22.42,22.42,0,0,1-6.75-1.14,5.34,5.34,0,0,1-3.33-3.15,34.13,34.13,0,0,1-1.85-8.25l-10.09-71.62c-.41-2.63-1.18-3.9-2.37-3.9-1,0-1.88,1-2.77,3L1502.12,1044l-29.93-64.63c-1.2-2.6-2.26-3.8-3.32-3.8s-1.93,1.11-2.25,3.32l-11,75.55c-.78,5.45-2.21,8.43-4.25,8.85a14.54,14.54,0,0,1-3.25.34c-1.42,0-2.14.4-2.14,1.18s.41,1.64,2.36,1.64c1.33,0,3.36-.06,6.05-.18s4.34-.17,4.93-.17c.43,0,2.05.06,4.8.17s5.06.18,6.83.18c2,0,3-.56,3-1.64,0-.54-.35-1.18-2-1.18a19.77,19.77,0,0,1-4.57-.57c-2.05-.5-3-1.59-3-3.35a43.15,43.15,0,0,1,.33-5.4l5.69-45.59c5.18,11.45,8.88,19.74,11.34,25.34,1.47,3.55,5.64,12.18,12.76,26.38,2.62,5.3,3.6,6,4.2,6s1.72-.8,4.45-6.72l24-52.3,6.58,50.47c.46,3.83-.11,4.49-.38,4.59-1.16.47-1.4,1.14-1.4,1.62,0,1.25,2,1.53,3.56,1.65,5.59.46,13.17.69,22.52.69,2.16,0,3.25-.56,3.25-1.64C1561.24,1064,1560.53,1063.63,1559.1,1063.63Z" transform="translate(-148.65 -838.37)"/>
    <path class="cls-2" d="M1633.83,1063.63a39.16,39.16,0,0,1-5.55-.46c-2.46-.36-3.8-2.11-4.08-5.35-.29-3.08-.44-11.37-.44-25.34v-20.39c0-13.75.08-22,.22-24.55.21-3.79,1.44-5.83,3.76-6.26a18.06,18.06,0,0,1,3.38-.35c1.7,0,2-.95,2-1.52,0-1.29-2-1.29-2.7-1.29-1.55,0-4,.06-7.33.17s-5.38.17-6.19.17-3.25-.05-6.81-.17-6.13-.17-7.61-.17c-1.3,0-3,.13-3,1.29,0,.7.4,1.52,2.31,1.52a16.33,16.33,0,0,1,3.73.45c2.13.58,3.27,2.59,3.49,6.16.15,2.53.22,10.56.22,24.55v20.39c0,13.35-.18,21.85-.55,25.28-.35,3.25-1.33,5.07-2.88,5.41-1.15.08-2.25.2-3.33.35s-2.77.38-2.77,1.41.87,1.52,2.58,1.52,4.22-.06,7.72-.18,5.59-.17,6.25-.17,3,.06,7,.17,7.46.18,10.25.18c2,0,2.48-.83,2.48-1.52S1635.59,1063.63,1633.83,1063.63Z" transform="translate(-148.65 -838.37)"/>
    <path class="cls-2" d="M1737.36,1047.64c-.61,0-1.38.36-1.59,2.06a11.93,11.93,0,0,1-2.79,6.75c-1.84,2.08-6.11,3.12-12.7,3.12-7,0-11.4-.82-13.17-2.45-.66-.59-1.51-2.35-1.87-7.4-.22-2.77-.33-8.41-.33-17.24v-20.39c0-14,.07-22,.22-24.55.22-3.79,1.46-5.83,3.8-6.26a23.19,23.19,0,0,1,4.26-.35c1.56,0,2.36-.47,2.36-1.4s-.91-1.41-2.69-1.41c-1.55,0-4.3.06-8.17.17s-6.18.17-6.91.17-3.07-.05-6.75-.17-6.52-.17-8.44-.17c-.69,0-2.8,0-2.8,1.41,0,.64.38,1.4,2.25,1.4,2.72,0,4.66.37,5.77,1.1,1.38.94,2.15,2.79,2.29,5.51.15,2.53.22,10.56.22,24.55v20.39c0,13.34-.19,21.63-.55,24.64-.43,3.67-1.41,5.71-2.88,6.05-1.16.08-2.25.2-3.34.35s-2.77.38-2.77,1.41.87,1.52,2.59,1.52,4.21-.06,7.72-.18,5.58-.17,6.24-.17c2.43,0,7,.12,13.52.35s12.78.35,18.75.35a22.6,22.6,0,0,0,4.41-.24,4,4,0,0,0,2.93-3.16,53.31,53.31,0,0,0,1.67-13.43C1738.61,1048.42,1738.19,1047.64,1737.36,1047.64Z" transform="translate(-148.65 -838.37)"/>
    <path class="cls-2" d="M1849,978.12c-.67,0-2.58.06-5.83.17s-5.22.17-6,.17c-1,0-2.71-.05-5-.17s-4.14-.17-5.4-.17c-1.87,0-2.25.76-2.25,1.41s.77,1.16,2.44,1.57a2.27,2.27,0,0,1,1.88,2.48,15.59,15.59,0,0,1-1.51,5.86c-5.78,11.28-11.26,21.79-16.31,31.26-12.16-22.23-18.22-33.35-18.5-34a11.45,11.45,0,0,1-1.3-3.79,1.54,1.54,0,0,1,1.29-1.73c1.92-.55,2.7-1,2.7-1.62s-.26-1.41-2-1.41-4.16.06-6.89.17-4.39.17-5,.17c-1.32,0-3.87-.05-7.58-.17s-5.86-.17-6.39-.17c-1.64,0-2.47.47-2.47,1.41,0,.64.35,1.4,2,1.4a9,9,0,0,1,4.47,1.46c2.31,1.36,4.84,4.17,7.53,8.33,1.85,3,5.48,9.08,10.79,18.19,5.51,9.46,8.27,14.27,8.68,15.14a30.84,30.84,0,0,1,2.53,12v9.51c0,4.29-.12,8.19-.33,11.56-.22,3.59-1.27,5.62-3.1,6-1.15.08-2.22.2-3.24.35-1.91.27-2.76.7-2.76,1.41,0,1,.94,1.52,2.81,1.52,1.47,0,4-.06,7.44-.18s5.61-.17,6.42-.17,3,.06,7,.17,7.34.18,10,.18c1.79,0,2.69-.51,2.69-1.52,0-.59-.37-1.3-2.16-1.3a40,40,0,0,1-5.54-.46c-2.3-.29-3.62-1.74-4.06-4.45a95.76,95.76,0,0,1-.55-13.14v-9.51c0-4.86.55-8.72,1.65-11.45,1-2.55,4.42-8.81,10-18.62s9.39-15.93,11.15-18.13a21.67,21.67,0,0,1,5.94-5.59,10,10,0,0,1,4.61-1.35c2.1,0,2.53-.82,2.53-1.52C1851.35,978.55,1850.56,978.12,1849,978.12Z" transform="translate(-148.65 -838.37)"/>
    <path class="cls-1" d="M699.25,1091.8c-1.19,0-3,0-5.52.11s-4.23.12-5.22.12c-.55,0-2.09,0-4.64-.12s-4.55-.11-6-.11c-1.09,0-1.63.23-1.63.69s.42.7,1.26.7a14.4,14.4,0,0,1,2.89.23c2,.46,3,1.94,3.18,4.42q.15,2.55.15,16.41v13.63c0,9-.13,14.49-.37,16.5-.29,2.58-1,4-2.14,4.26-.75,0-1.49.13-2.23.23-1.09.1-1.63.33-1.63.69,0,.52.49.78,1.48.78s2.81,0,5.15-.12,3.74-.11,4.18-.11,1.94,0,4.64.11,5,.12,6.85.12q1.41,0,1.41-.78c0-.41-.4-.61-1.19-.61a28,28,0,0,1-3.78-.31c-1.63-.26-2.59-1.65-2.88-4.19q-.37-3.4-.38-16.57v-31c0-.82.23-1.32.71-1.5a8.79,8.79,0,0,1,2.77-.27,10.44,10.44,0,0,1,7.42,3q4.37,4.1,4.36,11.61a13.68,13.68,0,0,1-3.4,9.37q-3,3.4-6.52,3.41c-1.38,0-2.08.28-2.08.85,0,.36.3.6.89.7a9.8,9.8,0,0,0,1.56.08,17.53,17.53,0,0,0,13.08-5.27,18.5,18.5,0,0,0,5.15-13.48,12.35,12.35,0,0,0-3.71-9.21Q708.59,1091.8,699.25,1091.8Z" transform="translate(-148.65 -838.37)"/>
    <path class="cls-1" d="M802.68,1148.87l-1.71-.15q-4.22-.85-8.3-5.27-2.89-3.1-7.18-8.75-.82-.93-8.89-11.62,9.78-8.28,9.78-17.34a13.15,13.15,0,0,0-1.78-6.67,11.2,11.2,0,0,0-3.26-3.94c-3.11-2.23-7.66-3.33-13.63-3.33-.75,0-2.46,0-5.15.11s-4.46.12-5.3.12l-4.15-.12c-2.47-.08-4.47-.11-6-.11-1.09,0-1.63.23-1.63.69s.42.7,1.26.7a14.4,14.4,0,0,1,2.89.23c2,.46,3,1.94,3.19,4.42q.15,2.55.15,16.41v13.63c0,9-.13,14.49-.38,16.5-.29,2.58-1,4-2.14,4.26-.75,0-1.49.13-2.23.23-1.09.1-1.62.33-1.62.69,0,.52.48.78,1.47.78s2.84,0,5.12-.12,3.58-.11,3.92-.11l4.26.11q4.11.12,6.63.12c1,0,1.49-.26,1.49-.78s-.3-.61-.89-.61a28.51,28.51,0,0,1-3.63-.31q-2.46-.32-2.89-4.24-.37-3.37-.38-16.45v-1.08a.54.54,0,0,1,.6-.62h6.44a1.64,1.64,0,0,1,1.34.55q4.15,6,7.34,10.68,6.51,9.38,10.14,11.39c1.73,1,4.38,1.47,7.93,1.47h7c.94,0,1.42-.26,1.42-.78C803.94,1149.2,803.51,1149,802.68,1148.87ZM768,1122.54a16.51,16.51,0,0,1-5.63-.78c-.44-.15-.67-.61-.67-1.39v-23.54a1,1,0,0,1,.38-.93c.44-.31,1.85-.47,4.22-.47a10.5,10.5,0,0,1,7.33,3q4,3.87,4,11.22c0,5.53-1.47,9.4-4.38,11.62Q771.57,1122.54,768,1122.54Z" transform="translate(-148.65 -838.37)"/>
    <path class="cls-1" d="M852.16,1090.71q-15.25,0-23.63,10.22a32.8,32.8,0,0,0,0,40.43q8.22,10.07,22.89,10.07,13.86,0,22.38-9.22,8.3-8.91,8.29-22.53,0-13.34-8.07-21.15T852.16,1090.71Zm12.89,52.74a14.66,14.66,0,0,1-10.51,4.1,19.8,19.8,0,0,1-16.68-8.44q-6.08-8-6.07-20.45,0-13.15,5.92-19.35c3.12-3.26,7.21-4.88,12.31-4.88a19,19,0,0,1,15.41,7.51q6.29,7.9,6.29,20.6Q871.72,1137.17,865.05,1143.45Z" transform="translate(-148.65 -838.37)"/>
    <path class="cls-1" d="M934.62,1091.8c-1.18,0-3,0-5.52.11s-4.23.12-5.22.12c-.54,0-2.09,0-4.63-.12s-4.56-.11-6-.11c-1.09,0-1.63.23-1.63.69s.42.7,1.26.7a14.4,14.4,0,0,1,2.89.23c2,.46,3,1.94,3.19,4.42q.15,2.55.15,16.41v13.63c0,9-.13,14.49-.38,16.5-.29,2.58-1,4-2.14,4.26-.75,0-1.49.13-2.23.23-1.09.1-1.62.33-1.62.69,0,.52.48.78,1.47.78s2.81,0,5.15-.12,3.74-.11,4.19-.11,1.93,0,4.63.11,5,.12,6.85.12q1.41,0,1.41-.78c0-.41-.4-.61-1.18-.61a28,28,0,0,1-3.79-.31c-1.62-.26-2.59-1.65-2.88-4.19q-.37-3.4-.37-16.57v-31c0-.82.23-1.32.7-1.5a8.87,8.87,0,0,1,2.78-.27,10.41,10.41,0,0,1,7.41,3q4.36,4.1,4.37,11.61a13.69,13.69,0,0,1-3.41,9.37c-2,2.27-4.2,3.41-6.52,3.41-1.38,0-2.08.28-2.08.85,0,.36.31.6.89.7a9.89,9.89,0,0,0,1.56.08A17.53,17.53,0,0,0,947,1118.9a18.5,18.5,0,0,0,5.15-13.48,12.35,12.35,0,0,0-3.71-9.21Q944,1091.8,934.62,1091.8Z" transform="translate(-148.65 -838.37)"/>
    <path class="cls-1" d="M1017.67,1138.57c-.39,0-.66.39-.81,1.16-.49,3-1.61,4.9-3.35,5.73-1.29.62-3.61.93-7,.93-3.73,0-6.12-.4-7.19-1.2s-1.65-2.57-1.74-5.31v-18.12c0-.51.14-.77.45-.77q8.48,0,10.56.23,3.57.39,4.16,3a18.92,18.92,0,0,1,.3,2.66c0,.55.23.81.67.81s.67-.48.67-1.47c0-.51.1-2.24.3-5.18.1-1.55.22-2.92.37-4.11.15-1,.23-1.5.23-1.55,0-.41-.18-.61-.53-.61-.2,0-.59.33-1.19,1a3.06,3.06,0,0,1-1.63.93,12.87,12.87,0,0,1-1.94.23q-1.71.15-11.9.15c-.35,0-.52-.28-.52-.84v-19.59c0-.52.17-.78.52-.78,5.36,0,8.87.1,10.56.31,2.72.36,4.39,1.29,5,2.79a5.58,5.58,0,0,1,.3,1.39c0,.52.11,1.06.18,1.63s.29.85.64.85.64-.28.74-.85c.2-2,.34-3.72.41-5.12s.19-2.6.34-3.63c.14-.88.22-1.34.22-1.4,0-.46-.15-.7-.44-.7a11.31,11.31,0,0,1-1.19.31,19.74,19.74,0,0,1-3.18.47q-1,.08-18.53.08c-.54,0-2.08,0-4.63-.12s-4.56-.11-6-.11c-1.09,0-1.62.23-1.62.69s.41.7,1.25.7a14.26,14.26,0,0,1,2.89.23c2,.46,3,1.94,3.19,4.42q.15,2.55.15,16.41v13.63c0,9-.13,14.49-.37,16.5q-.45,3.87-2.15,4.26c-.75,0-1.48.13-2.22.23-1.09.1-1.63.33-1.63.69,0,.52.49.78,1.48.78s2.8,0,5.15-.12,3.73-.11,4.18-.11q1.34,0,7.7.23t12.82.23a9,9,0,0,0,3-.3,2.5,2.5,0,0,0,1-1.71,35.76,35.76,0,0,0,1-8.6C1018.27,1139,1018.07,1138.57,1017.67,1138.57Z" transform="translate(-148.65 -838.37)"/>
    <path class="cls-1" d="M1105.61,1148.87l-1.7-.15q-4.23-.85-8.3-5.27-2.89-3.1-7.19-8.75-.81-.93-8.88-11.62,9.78-8.28,9.77-17.34a13.05,13.05,0,0,0-1.78-6.67,11.19,11.19,0,0,0-3.25-3.94c-3.12-2.23-7.66-3.33-13.63-3.33-.75,0-2.46,0-5.15.11s-4.46.12-5.3.12l-4.15-.12c-2.47-.08-4.47-.11-6-.11-1.09,0-1.63.23-1.63.69s.42.7,1.26.7a14.4,14.4,0,0,1,2.89.23c2,.46,3,1.94,3.18,4.42q.15,2.55.15,16.41v13.63c0,9-.13,14.49-.37,16.5-.29,2.58-1,4-2.14,4.26-.75,0-1.49.13-2.23.23-1.09.1-1.63.33-1.63.69,0,.52.49.78,1.48.78s2.84,0,5.12-.12,3.58-.11,3.92-.11l4.26.11q4.11.12,6.63.12c1,0,1.49-.26,1.49-.78s-.31-.61-.89-.61a28.36,28.36,0,0,1-3.63-.31c-1.64-.21-2.6-1.62-2.9-4.24q-.37-3.37-.37-16.45v-1.08a.54.54,0,0,1,.6-.62h6.44a1.61,1.61,0,0,1,1.33.55q4.15,6,7.34,10.68,6.51,9.38,10.15,11.39,2.6,1.47,7.92,1.47h7c.94,0,1.42-.26,1.42-.78C1106.88,1149.2,1106.45,1149,1105.61,1148.87Zm-34.67-26.33a16.43,16.43,0,0,1-5.63-.78c-.45-.15-.67-.61-.67-1.39v-23.54a1,1,0,0,1,.37-.93c.45-.31,1.86-.47,4.23-.47a10.5,10.5,0,0,1,7.33,3q4,3.87,4,11.22c0,5.53-1.47,9.4-4.38,11.62Q1074.5,1122.54,1070.94,1122.54Z" transform="translate(-148.65 -838.37)"/>
    <path class="cls-1" d="M1171,1091.33a14.8,14.8,0,0,1-2,.34,32.42,32.42,0,0,1-5.12.36h-29.34c-2.27,0-4.73-.13-7.4-.39a5.94,5.94,0,0,1-2-.5,4.62,4.62,0,0,0-1.19-.43c-.35,0-.64.49-.89,1.47a52.34,52.34,0,0,0-1.55,8.91c0,.82.22,1.24.66,1.24s.67-.31.81-.93a9.08,9.08,0,0,1,1.27-2.72c.89-1.39,3.28-2.13,7.19-2.24l11-.31v31.75q0,13.09-.37,16.5-.44,3.87-2.15,4.26c-.74,0-1.48.13-2.22.23-1.09.1-1.63.33-1.63.69,0,.52.49.78,1.48.78s2.81,0,5.15-.12,3.74-.11,4.19-.11,2,0,4.74.11,5,.12,6.89.12q1.41,0,1.41-.78c0-.41-.4-.61-1.19-.61a27.85,27.85,0,0,1-3.78-.31c-1.62-.26-2.59-1.65-2.89-4.19q-.37-3.4-.37-16.57v-31.75l9.34.24q8.37.23,8.74,4.33l.08.85c.09,1,.36,1.55.81,1.55s.54-.38.59-1.15.11-2.33.19-4.69.11-3.8.11-4.32C1171.63,1091.87,1171.43,1091.33,1171,1091.33Z" transform="translate(-148.65 -838.37)"/>
    <path class="cls-1" d="M1222.16,1149a27.43,27.43,0,0,1-3.74-.31c-1.77-.26-2.74-1.52-2.94-3.8q-.3-3.09-.29-17v-13.63q0-13.86.14-16.41.23-4,2.71-4.42a13.08,13.08,0,0,1,2.31-.23c.71,0,1.06-.26,1.06-.78s-.52-.61-1.56-.61-2.67,0-4.88.11-3.61.12-4.16.12-2.16,0-4.55-.12-4.09-.11-5.07-.11c-1.2,0-1.78.2-1.78.61s.43.78,1.29.78a10.49,10.49,0,0,1,2.56.31q2.29.62,2.52,4.34.15,2.55.15,16.41v13.63q0,13.47-.38,16.93c-.25,2.29-1,3.57-2.14,3.83-.75,0-1.49.13-2.22.23-1.1.1-1.63.33-1.63.69,0,.52.48.78,1.47.78s2.81,0,5.16-.12,3.73-.11,4.18-.11,2,0,4.7.11,5,.12,6.86.12q1.41,0,1.41-.78C1223.34,1149.15,1222.94,1149,1222.16,1149Z" transform="translate(-148.65 -838.37)"/>
    <path class="cls-1" d="M1289.5,1138.57c-.4,0-.67.39-.81,1.16-.5,3-1.62,4.9-3.35,5.73q-1.93.93-7,.93-5.58,0-7.18-1.2t-1.75-5.31v-18.12c0-.51.15-.77.45-.77q8.48,0,10.56.23,3.57.39,4.17,3a18.92,18.92,0,0,1,.3,2.66c0,.55.22.81.67.81s.66-.48.66-1.47c0-.51.1-2.24.3-5.18.11-1.55.23-2.92.38-4.11.14-1,.22-1.5.22-1.55,0-.41-.17-.61-.52-.61-.2,0-.6.33-1.19,1a3.09,3.09,0,0,1-1.64.93,12.87,12.87,0,0,1-1.94.23q-1.71.15-11.9.15c-.34,0-.52-.28-.52-.84v-19.59c0-.52.18-.78.52-.78q8,0,10.56.31,4.1.54,5,2.79a5.59,5.59,0,0,1,.29,1.39c0,.52.12,1.06.19,1.63s.28.85.63.85.64-.28.75-.85c.2-2,.33-3.72.4-5.12s.19-2.6.34-3.63c.14-.88.22-1.34.22-1.4,0-.46-.15-.7-.44-.7a11.4,11.4,0,0,1-1.18.31,19.88,19.88,0,0,1-3.19.47q-1,.08-18.52.08c-.55,0-2.09,0-4.64-.12s-4.55-.11-6-.11c-1.09,0-1.63.23-1.63.69s.42.7,1.26.7a14.4,14.4,0,0,1,2.89.23c2,.46,3,1.94,3.18,4.42q.15,2.55.15,16.41v13.63c0,9-.13,14.49-.37,16.5q-.43,3.87-2.15,4.26c-.74,0-1.48.13-2.22.23-1.09.1-1.63.33-1.63.69,0,.52.49.78,1.48.78s2.81,0,5.15-.12,3.74-.11,4.18-.11q1.34,0,7.71.23t12.82.23a8.93,8.93,0,0,0,3-.3c.45-.21.79-.78,1-1.71a35.76,35.76,0,0,0,1-8.6C1290.09,1139,1289.89,1138.57,1289.5,1138.57Z" transform="translate(-148.65 -838.37)"/>
    <path class="cls-1" d="M1350.47,1124.75q-2.74-4.45-9.41-9.72l-2.08-1.63a31.07,31.07,0,0,1-6.18-6,9,9,0,0,1-1.66-5.15,7.5,7.5,0,0,1,2.36-5.77,9.1,9.1,0,0,1,6.45-2.21,9.54,9.54,0,0,1,8.07,3.8,8.41,8.41,0,0,1,1.93,5.1c0,.94.25,1.4.74,1.4s.82-.77.82-2.32c0-2.43,0-4.61.14-6.54s.15-2.86.15-2.75c0-.42-.34-.73-1-.93a38.71,38.71,0,0,0-9.85-1.32q-7.62,0-12.37,4.11a13.28,13.28,0,0,0-4.74,10.53q0,9.38,11,18.35l3.4,2.79q7.26,6,7.26,12.39a8.36,8.36,0,0,1-2.44,6,10,10,0,0,1-7.49,2.86q-8.37,0-10.59-7.82a14.51,14.51,0,0,1-.67-3.94c0-.88-.24-1.32-.74-1.32s-.79.67-.89,2c-.24,4-.37,7.36-.37,10.15a2.56,2.56,0,0,0,1.41,2.63,25.85,25.85,0,0,0,10.81,2q7.13,0,11.78-3.18a15.3,15.3,0,0,0,7-13.47A18.72,18.72,0,0,0,1350.47,1124.75Z" transform="translate(-148.65 -838.37)"/>
</svg>
