<svg id="Layer_1" data-name="Layer 1" xmlns="http://www.w3.org/2000/svg" viewBox="0 0 1537.57 760.16">
    <defs>
        <style>.cls-1{fill:#e7a800;}.cls-2{fill:#fff;}</style>
    </defs>
    <path class="cls-1" d="M994.68,619.92,852.2,734v366.52H994.68S995.15,659.43,994.68,619.92Z" transform="translate(-231.22 -619.92)"/>
    <path class="cls-2" d="M1005.32,619.92,1147.8,734v366.52S1004.85,659.43,1005.32,619.92Z" transform="translate(-231.22 -619.92)"/>
    <path class="cls-1" d="M1237.34,798.47l-89.54,71.67v230.35h89.54S1237.64,823.3,1237.34,798.47Z" transform="translate(-231.22 -619.92)"/>
    <path class="cls-2" d="M1244,798.47l89.54,71.67v230.35S1243.74,823.3,1244,798.47Z" transform="translate(-231.22 -619.92)"/>
    <path class="cls-1" d="M756,798.47l-89.54,71.67v230.35H756S756.26,823.3,756,798.47Z" transform="translate(-231.22 -619.92)"/>
    <path class="cls-2" d="M762.66,798.47l89.54,71.67v230.35S762.36,823.3,762.66,798.47Z" transform="translate(-231.22 -619.92)"/>
    <path class="cls-2" d="M379.22,1265.21a29.48,29.48,0,0,1-8.84-1.5,7,7,0,0,1-4.36-4.12c-.94-2.17-1.76-5.79-2.42-10.79l-13.2-93.7c-.54-3.44-1.55-5.11-3.1-5.11-1.28,0-2.47,1.29-3.63,3.92l-39,85.61L265.5,1155c-1.58-3.4-3-5-4.35-5s-2.52,1.46-2.95,4.36l-14.36,98.85c-1,7.12-2.89,11-5.57,11.57a19,19,0,0,1-4.25.45c-1.86,0-2.8.52-2.8,1.54s.54,2.14,3.09,2.14c1.74,0,4.4-.08,7.92-.23s5.67-.23,6.44-.23c.57,0,2.68.08,6.29.23s6.62.23,8.94.23c2.63,0,4-.72,4-2.14,0-.7-.46-1.54-2.66-1.54a25.69,25.69,0,0,1-6-.75c-2.68-.65-4-2.08-4-4.38a58.11,58.11,0,0,1,.43-7.07l7.45-59.64c6.77,15,11.61,25.82,14.83,33.15,1.92,4.65,7.39,15.94,16.7,34.51,3.43,6.93,4.7,7.86,5.5,7.86s2.24-1,5.81-8.79l31.38-68.43,8.61,66c.61,5-.14,5.87-.5,6-1.51.61-1.83,1.49-1.83,2.12,0,1.62,2.66,2,4.66,2.15,7.32.6,17.23.9,29.47.9,2.83,0,4.25-.72,4.25-2.14C382,1265.73,381.08,1265.21,379.22,1265.21Z" transform="translate(-231.22 -619.92)"/>
    <path class="cls-2" d="M537.61,1153.33c-2.22,0-5.49.08-9.73.23l-6.78.23c-6.84-.3-12.47-.45-16.7-.45-2.35,0-3.53.62-3.53,1.84,0,.84.51,1.85,2.95,1.85a24.48,24.48,0,0,1,5.11.44c3.67.86,5.59,3.55,5.88,8.21.19,3.38.29,14.5.29,32.16v19c0,9.61-.39,16.84-1.15,21.48-1.24,6.85-3.63,12.17-7.13,15.84-5.1,5.34-11.71,8-19.66,8-7.11,0-13.1-2.06-17.82-6.12-7.39-6.35-11.14-18.79-11.14-37v-21.25c0-18.33.09-28.84.29-32.16.28-5,1.91-7.64,5-8.21a24,24,0,0,1,4.12-.44c2.31,0,2.8-1,2.8-1.85,0-1.84-2.76-1.84-3.67-1.84-1.83,0-5,.08-9.52.23s-7.27.23-8.32.23-4.3-.08-9.34-.23-9-.23-11.85-.23c-.91,0-3.66,0-3.66,1.84,0,.84.51,1.84,2.94,1.84a26.23,26.23,0,0,1,5.55.45c3.67.86,5.58,3.54,5.87,8.19.2,3.31.29,13.82.29,32.12v22.13c0,18.75,4.39,32.39,13.06,40.52,7.41,7,18.35,10.6,32.53,10.6,12.05,0,22.31-3.71,30.49-11,5.56-5,9.46-12,11.61-20.87,1.55-6.39,2.33-14.85,2.33-25.13v-16.22c0-18.3.09-28.81.29-32.12.28-5,1.91-7.63,5-8.19a22.93,22.93,0,0,1,4.12-.45c2.55,0,3.09-1,3.09-1.84C541.13,1154,540,1153.33,537.61,1153.33Z" transform="translate(-231.22 -619.92)"/>
    <path class="cls-2" d="M670.47,1244.29c-.8,0-1.8.47-2.07,2.69a15.63,15.63,0,0,1-3.65,8.83c-2.4,2.71-8,4.08-16.61,4.08-9.11,0-14.91-1.08-17.23-3.21-.86-.77-2-3.08-2.45-9.69-.29-3.62-.43-11-.43-22.56v-26.68c0-18.3.09-28.81.29-32.12.28-5,1.91-7.63,5-8.19a30.58,30.58,0,0,1,5.58-.45c2,0,3.09-.62,3.09-1.84s-1.18-1.84-3.52-1.84c-2,0-5.62.08-10.68.23s-8.09.23-9,.23-4-.08-8.82-.23-8.54-.23-11-.23c-.91,0-3.67,0-3.67,1.84,0,.84.51,1.84,3,1.84,3.56,0,6.1.49,7.56,1.44,1.8,1.23,2.81,3.65,3,7.21.2,3.31.29,13.82.29,32.12v26.68c0,17.46-.24,28.31-.72,32.24-.55,4.81-1.84,7.47-3.76,7.91-1.51.1-3,.26-4.36.46-1.56.14-3.62.5-3.62,1.84s1.14,2,3.38,2,5.52-.08,10.1-.23,7.31-.23,8.18-.23c3.17,0,9.12.15,17.68.45s16.73.46,24.53.46a29.59,29.59,0,0,0,5.77-.31c1.91-.46,3.21-1.85,3.84-4.14a69.82,69.82,0,0,0,2.18-17.56C672.1,1245.31,671.56,1244.29,670.47,1244.29Z" transform="translate(-231.22 -619.92)"/>
    <path class="cls-2" d="M813.5,1152.5l0-.08H813v.48l-.13-.44c-.11,0-.76.16-3.86.64a64.41,64.41,0,0,1-9.93.69H741.68c-4.41,0-9.27-.25-14.46-.76a10.69,10.69,0,0,1-3.75-1,7.66,7.66,0,0,0-2.52-.87c-1.24,0-1.86,1.85-2.22,3.26-2.06,9-3.05,14.76-3.05,17.54,0,2.4,1,2.9,1.78,2.9s1.63-.38,2.07-2.19a17,17,0,0,1,2.4-5.16c1.64-2.57,6.24-4,13.67-4.17l21.13-.59v61.66c0,17-.24,27.8-.72,32.24-.55,4.81-1.85,7.47-3.77,7.91-1.5.1-3,.26-4.36.46-1.56.14-3.62.49-3.62,1.84s1.14,2,3.38,2,5.52-.08,10.1-.23,7.31-.23,8.18-.23,4,.08,9.27.23,9.83.23,13.5.23c2.68,0,3.24-1.08,3.24-2s-.49-1.69-2.81-1.69a52.83,52.83,0,0,1-7.32-.61c-3-.47-4.7-3-5.25-7.76-.49-4.41-.73-15.31-.73-32.39v-61.67l17.79.44c10.59.3,16.19,3,16.65,8l.14,1.68c.08.85.34,3.46,2.07,3.46,1,0,1.52-.91,1.64-2.71.09-1.49.22-4.59.37-9.2.15-5,.22-7.5.22-8.45S814.68,1153,813.5,1152.5Z" transform="translate(-231.22 -619.92)"/>
    <path class="cls-2" d="M913.13,1265.21a52.05,52.05,0,0,1-7.26-.61c-3.23-.47-5-2.76-5.34-7-.38-4-.57-14.88-.57-33.16v-26.68c0-18,.09-28.81.28-32.12.28-5,1.89-7.63,4.92-8.19a23.67,23.67,0,0,1,4.42-.45c2.23,0,2.56-1.25,2.56-2,0-1.69-2.66-1.69-3.53-1.69-2,0-5.25.08-9.59.23s-7,.23-8.1.23c-1.25,0-4.24-.08-8.9-.23s-8-.23-10-.23c-1.7,0-4,.17-4,1.69,0,.91.53,2,3,2a21.22,21.22,0,0,1,4.88.59c2.8.76,4.29,3.39,4.57,8.05.2,3.31.29,13.82.29,32.12v26.68c0,17.47-.24,28.59-.72,33.08-.46,4.25-1.75,6.64-3.76,7.08-1.51.1-3,.26-4.36.46s-3.62.5-3.62,1.84,1.14,2,3.38,2,5.52-.08,10.1-.23,7.31-.23,8.18-.23,4,.08,9.21.23,9.76.23,13.42.23c2.68,0,3.24-1.08,3.24-2S915.44,1265.21,913.13,1265.21Z" transform="translate(-231.22 -619.92)"/>
    <path class="cls-2" d="M1044.07,1152.16l-.42-.06v.48h0l-.21-.36a17.19,17.19,0,0,1-2.16.79,38.75,38.75,0,0,1-5.89.6c-2,.1-14.5.15-38.27.15-1.15,0-4.24-.08-9.19-.23s-8.91-.23-11.7-.23c-2.53,0-3.81.67-3.81,2,0,1.13,1,1.69,2.94,1.69a26.23,26.23,0,0,1,5.55.45c3.67.86,5.58,3.54,5.87,8.19.2,3.31.29,13.82.29,32.12v26.68c0,17.46-.24,28.31-.72,32.24-.55,4.81-1.84,7.47-3.76,7.91-1.51.1-2.9.26-4.21.46-1.56.14-3.62.49-3.62,1.84s1.18,2,3.52,2c2.06,0,5.31-.08,10-.23s7.41-.23,8.47-.23c.76,0,3.78.08,9,.23s9.59.23,13.07.23c2.43,0,3.66-.67,3.66-2,0-1.13-1-1.69-3-1.69a52.89,52.89,0,0,1-7.24-.61c-3-.47-4.75-3.06-5.3-7.91-.49-4.41-.73-15.25-.73-32.24v-12.28c0-.88.34-.88.54-.88,12,0,19.2.15,21.49.45,3.72.48,6,2.17,7,5.06.2,1.31.45,2.66.73,3.94.23,1.52.65,3.28,1.78,3.28,1.29,0,1.94-1.13,1.94-3.35,0-3.27.2-7,.58-11q.29-2.58.72-6.05c.37-2.58.44-3.2.44-3.4,0-1.6-.84-1.84-1.35-1.84s-1.38.54-2.28,1.7q-1.6,2.12-5.69,2.55c-.43.09-2.7.14-6.74.14h-18.65c-.2,0-.54,0-.54-.87v-37.63c0-1.62.6-1.62.82-1.62l22.43.45c4.92.09,8,1.51,9.18,4.21a14,14,0,0,1,.84,5.53c.14,2.36,1.13,2.84,1.92,2.84s1.64-.44,1.93-2.57q.43-7.12.72-12.26c.18-1.46.42-3,.71-4.49a11.41,11.41,0,0,0,.44-2.38C1045.14,1152.71,1044.56,1152.29,1044.07,1152.16Z" transform="translate(-231.22 -619.92)"/>
    <path class="cls-2" d="M1202.91,1265.21a27.25,27.25,0,0,1-6-.6c-4.26-1-8.44-6.42-12.42-16.23-14.94-38.34-27-69.71-36-93.25-1.46-3.51-2.76-5.14-4.06-5.14s-2.84,2-4.51,6.37l-36.41,95.22a35,35,0,0,1-4.71,9.26,10.46,10.46,0,0,1-7.23,4.06,30.6,30.6,0,0,1-4.43.31c-1.93,0-2.22,1.06-2.22,1.69,0,.91.56,2,3.24,2,3,0,8.75-.15,17.11-.45,1.44,0,4,.08,7.6.23s6.22.23,7.77.23c2.44,0,2.95-1.08,2.95-2s-.46-1.69-2.66-1.69h-2.17c-3.59,0-5.33-1.38-5.33-4.22,0-2,.72-5.09,2.15-9.09l7.84-21.68c.32-.89.71-.89.85-.89h32.35a1,1,0,0,1,1,.74l11.6,32.15a2.58,2.58,0,0,1,.13,2,1.74,1.74,0,0,1-1,.84c-2,.14-2.47,1.08-2.47,1.84,0,1.06,1.44,1.57,4.82,1.69,6.16.21,15.12.3,27.43.3a29.41,29.41,0,0,0,5.31-.31c1.52-.31,1.84-1.08,1.84-1.68S1205,1265.21,1202.91,1265.21Zm-48.71-44.48a.58.58,0,0,1-.32.06h-26.69a.65.65,0,0,1-.16,0s0-.1,0-.4l13.37-37.36a4.08,4.08,0,0,1,.32-1,3,3,0,0,1,.36,1l13,37.43C1154.19,1220.65,1154.19,1220.73,1154.2,1220.73Z" transform="translate(-231.22 -619.92)"/>
    <path class="cls-2" d="M1386.39,1265.21a29.48,29.48,0,0,1-8.84-1.5,7,7,0,0,1-4.36-4.12c-.94-2.17-1.76-5.79-2.42-10.79l-13.2-93.7c-.54-3.44-1.55-5.11-3.1-5.11-1.28,0-2.47,1.29-3.63,3.92l-39,85.61L1272.67,1155c-1.58-3.4-3-5-4.35-5s-2.53,1.46-3,4.36L1251,1253.2c-1,7.12-2.89,11-5.57,11.57a19,19,0,0,1-4.25.45c-1.86,0-2.8.52-2.8,1.54s.54,2.14,3.09,2.14c1.74,0,4.4-.08,7.92-.23s5.67-.23,6.44-.23c.57,0,2.68.08,6.29.23s6.62.23,8.94.23c2.63,0,4-.72,4-2.14,0-.7-.46-1.54-2.66-1.54a25.69,25.69,0,0,1-6-.75c-2.68-.65-4-2.08-4-4.38a58.11,58.11,0,0,1,.43-7.07l7.45-59.64c6.77,15,11.61,25.82,14.83,33.15,1.92,4.65,7.39,15.94,16.7,34.51,3.43,6.93,4.7,7.86,5.5,7.86s2.24-1,5.81-8.79l31.38-68.43,8.61,66c.61,5-.14,5.87-.5,6-1.51.61-1.83,1.49-1.83,2.12,0,1.62,2.66,2,4.66,2.15,7.32.6,17.23.9,29.47.9,2.83,0,4.25-.72,4.25-2.14C1389.19,1265.73,1388.25,1265.21,1386.39,1265.21Z" transform="translate(-231.22 -619.92)"/>
    <path class="cls-2" d="M1484.16,1265.21a52.05,52.05,0,0,1-7.26-.61c-3.23-.47-5-2.76-5.34-7-.38-4-.57-14.88-.57-33.16v-26.68c0-18,.09-28.81.28-32.12.28-5,1.89-7.63,4.92-8.19a23.67,23.67,0,0,1,4.42-.45c2.23,0,2.56-1.25,2.56-2,0-1.69-2.66-1.69-3.53-1.69-2,0-5.25.08-9.59.23s-7,.23-8.1.23c-1.25,0-4.24-.08-8.9-.23s-8-.23-10-.23c-1.7,0-4,.17-4,1.69,0,.91.53,2,3,2a21.22,21.22,0,0,1,4.88.59c2.8.76,4.29,3.39,4.57,8.05.2,3.31.29,13.82.29,32.12v26.68c0,17.47-.24,28.59-.72,33.08-.46,4.25-1.75,6.64-3.76,7.08-1.51.1-3,.26-4.36.46s-3.62.5-3.62,1.84,1.14,2,3.38,2,5.52-.08,10.1-.23,7.31-.23,8.18-.23,4,.08,9.21.23,9.76.23,13.42.23c2.68,0,3.24-1.08,3.24-2S1486.47,1265.21,1484.16,1265.21Z" transform="translate(-231.22 -619.92)"/>
    <path class="cls-2" d="M1619.62,1244.29c-.8,0-1.8.47-2.07,2.69a15.63,15.63,0,0,1-3.65,8.83c-2.4,2.71-8,4.08-16.61,4.08-9.11,0-14.91-1.08-17.23-3.21-.86-.77-2-3.08-2.45-9.69-.29-3.62-.43-11-.43-22.56v-26.68c0-18.3.09-28.81.29-32.12.28-5,1.91-7.63,5-8.19a30.58,30.58,0,0,1,5.58-.45c2,0,3.09-.62,3.09-1.84s-1.18-1.84-3.52-1.84c-2,0-5.62.08-10.68.23s-8.09.23-9.05.23-4-.08-8.82-.23-8.54-.23-11-.23c-.91,0-3.67,0-3.67,1.84,0,.84.51,1.84,3,1.84,3.56,0,6.1.49,7.56,1.44,1.8,1.23,2.81,3.65,3,7.21.2,3.31.29,13.82.29,32.12v26.68c0,17.46-.24,28.31-.72,32.24-.55,4.81-1.84,7.47-3.76,7.91-1.51.1-2.95.26-4.36.46s-3.62.5-3.62,1.84,1.14,2,3.38,2,5.52-.08,10.1-.23,7.31-.23,8.18-.23c3.17,0,9.12.15,17.68.45s16.73.46,24.53.46a29.59,29.59,0,0,0,5.77-.31c1.91-.46,3.21-1.85,3.84-4.14a69.82,69.82,0,0,0,2.18-17.56C1621.25,1245.31,1620.7,1244.29,1619.62,1244.29Z" transform="translate(-231.22 -619.92)"/>
    <path class="cls-2" d="M1765.68,1153.33c-.88,0-3.38.08-7.63.23s-6.83.23-7.88.23c-1.34,0-3.56-.08-6.58-.23s-5.42-.23-7.06-.23c-2.44,0-3,1-3,1.84s1,1.53,3.2,2.06a3,3,0,0,1,2.46,3.25,20.34,20.34,0,0,1-2,7.67c-7.57,14.76-14.74,28.52-21.34,40.9-15.92-29.08-23.84-43.64-24.21-44.52-1.41-3.06-1.71-4.38-1.71-5a2,2,0,0,1,1.69-2.26c2.52-.72,3.54-1.34,3.54-2.13s-.35-1.84-2.66-1.84-5.44.08-9,.23-5.74.23-6.51.23c-1.73,0-5.06-.08-9.91-.23s-7.67-.23-8.36-.23c-2.14,0-3.23.62-3.23,1.84,0,.84.46,1.84,2.66,1.84a11.76,11.76,0,0,1,5.85,1.91c3,1.78,6.34,5.45,9.85,10.91,2.42,3.87,7.17,11.87,14.13,23.79,7.21,12.37,10.82,18.67,11.36,19.81a40.3,40.3,0,0,1,3.3,15.73v12.44c0,5.62-.15,10.72-.43,15.13-.28,4.69-1.66,7.35-4,7.88-1.5.1-2.9.26-4.24.46-2.5.36-3.6.92-3.6,1.84,0,1.32,1.23,2,3.67,2,1.92,0,5.2-.08,9.74-.23s7.34-.23,8.39-.23c.86,0,3.93.08,9.12.23s9.6.23,13.07.23c2.35,0,3.53-.67,3.53-2,0-.77-.49-1.69-2.83-1.69a53.4,53.4,0,0,1-7.26-.61c-3-.38-4.74-2.27-5.3-5.82-.48-2.59-.72-8.37-.72-17.2v-12.44c0-6.36.72-11.4,2.15-15,1.37-3.33,5.79-11.53,13.14-24.36s12.29-20.85,14.59-23.73c2.95-3.68,5.57-6.14,7.77-7.31a13.14,13.14,0,0,1,6-1.76c2.74,0,3.31-1.08,3.31-2C1768.76,1153.89,1767.72,1153.33,1765.68,1153.33Z" transform="translate(-231.22 -619.92)"/>
    <path class="cls-1" d="M587.25,1302.06c-1.55,0-4,0-7.22.15s-5.54.15-6.83.15q-1.07,0-6.06-.15c-3.32-.1-6-.15-7.89-.15-1.43,0-2.13.3-2.13.91s.54.91,1.64.91a18.52,18.52,0,0,1,3.78.3c2.58.61,4,2.53,4.17,5.78q.19,3.33.2,21.48v17.83q0,17.63-.49,21.58-.57,5.07-2.81,5.58c-1,.07-1.94.17-2.91.3-1.43.14-2.13.44-2.13.91,0,.68.64,1,1.93,1s3.67-.05,6.74-.15,4.89-.15,5.47-.15,2.53.05,6.06.15,6.5.15,9,.15c1.23,0,1.84-.34,1.84-1s-.52-.81-1.55-.81a35.17,35.17,0,0,1-4.95-.4q-3.2-.51-3.77-5.47-.49-4.47-.49-21.68v-40.53c0-1.08.3-1.74.92-2a11.77,11.77,0,0,1,3.63-.36,13.64,13.64,0,0,1,9.7,3.95q5.72,5.37,5.72,15.2a17.88,17.88,0,0,1-4.46,12.26q-4,4.47-8.53,4.46c-1.8,0-2.71.38-2.71,1.12,0,.47.39.78,1.16.91a12.41,12.41,0,0,0,2,.1,22.91,22.91,0,0,0,17.11-6.89q6.74-6.9,6.74-17.64a16.18,16.18,0,0,0-4.85-12.05Q599.47,1302.05,587.25,1302.06Z" transform="translate(-231.22 -619.92)"/>
    <path class="cls-1" d="M722.58,1376.73l-2.22-.2c-3.69-.74-7.3-3-10.86-6.89q-3.78-4-9.41-11.45Q699,1357,688.46,1343q12.79-10.85,12.79-22.7a17.14,17.14,0,0,0-2.33-8.72,14.68,14.68,0,0,0-4.26-5.16q-6.1-4.37-17.83-4.36c-1,0-3.22,0-6.74.15s-5.83.15-6.93.15c-.39,0-2.21,0-5.43-.15s-5.85-.15-7.85-.15c-1.43,0-2.13.3-2.13.91s.54.91,1.64.91a18.52,18.52,0,0,1,3.78.3c2.58.61,4,2.53,4.17,5.78q.2,3.33.2,21.48v17.83q0,17.63-.49,21.58-.57,5.07-2.81,5.58c-1,.07-1.94.17-2.91.3-1.43.14-2.13.44-2.13.91,0,.68.64,1,1.93,1,1.48,0,3.72-.05,6.69-.15s4.68-.15,5.13-.15l5.58.15q5.38.15,8.67.15c1.3,0,1.94-.34,1.94-1s-.39-.81-1.16-.81a35.59,35.59,0,0,1-4.75-.4c-2.14-.27-3.4-2.11-3.78-5.54q-.5-4.43-.49-21.53v-1.41q0-.81.78-.81h8.43a2.14,2.14,0,0,1,1.75.71q5.43,7.8,9.6,14,8.52,12.27,13.27,14.9c2.26,1.29,5.73,1.92,10.37,1.92h9.21c1.23,0,1.85-.34,1.85-1C724.23,1377.17,723.68,1376.87,722.58,1376.73Zm-45.37-34.45a21.83,21.83,0,0,1-7.37-1c-.58-.2-.87-.81-.87-1.82v-30.81a1.31,1.31,0,0,1,.49-1.21c.58-.4,2.42-.61,5.53-.61a13.76,13.76,0,0,1,9.59,3.85q5.24,5.07,5.24,14.69,0,10.86-5.73,15.21Q681.87,1342.28,677.21,1342.28Z" transform="translate(-231.22 -619.92)"/>
    <path class="cls-1" d="M787.32,1300.64q-20,0-30.92,13.37-9.1,11.06-9.11,26.35,0,15.5,9.11,26.54,10.76,13.18,30,13.18,18.12,0,29.28-12.06,10.86-11.65,10.85-29.48,0-17.43-10.56-27.66T787.32,1300.64Zm16.87,69a19.18,19.18,0,0,1-13.76,5.37q-13.57,0-21.81-11-7.95-10.44-8-26.75,0-17.22,7.75-25.32,6.11-6.39,16.1-6.38,12.21,0,20.16,9.83,8.24,10.34,8.23,27Q812.91,1361.43,804.19,1369.64Z" transform="translate(-231.22 -619.92)"/>
    <path class="cls-1" d="M895.21,1302.06c-1.55,0-4,0-7.22.15s-5.54.15-6.83.15q-1.06,0-6.06-.15c-3.32-.1-6-.15-7.89-.15-1.43,0-2.13.3-2.13.91s.54.91,1.64.91a18.52,18.52,0,0,1,3.78.3c2.58.61,4,2.53,4.17,5.78q.2,3.33.2,21.48v17.83q0,17.63-.49,21.58-.57,5.07-2.81,5.58c-1,.07-1.94.17-2.91.3-1.43.14-2.13.44-2.13.91,0,.68.64,1,1.93,1s3.67-.05,6.74-.15,4.89-.15,5.47-.15,2.53.05,6.06.15,6.5.15,9,.15c1.23,0,1.84-.34,1.84-1s-.52-.81-1.55-.81a35.17,35.17,0,0,1-5-.4q-3.19-.51-3.77-5.47-.5-4.47-.49-21.68v-40.53c0-1.08.3-1.74.92-2a11.77,11.77,0,0,1,3.63-.36,13.64,13.64,0,0,1,9.7,3.95q5.72,5.37,5.72,15.2a17.88,17.88,0,0,1-4.46,12.26q-4,4.47-8.53,4.46c-1.8,0-2.71.38-2.71,1.12,0,.47.39.78,1.16.91a12.41,12.41,0,0,0,2,.1,22.91,22.91,0,0,0,17.11-6.89q6.74-6.9,6.74-17.64a16.18,16.18,0,0,0-4.85-12.05Q907.44,1302.05,895.21,1302.06Z" transform="translate(-231.22 -619.92)"/>
    <path class="cls-1" d="M1003.88,1363.26c-.52,0-.87.51-1.06,1.52q-1,5.87-4.38,7.49c-1.69.82-4.73,1.22-9.14,1.22-4.87,0-8-.53-9.4-1.57s-2.16-3.36-2.28-7v-23.71c0-.68.19-1,.58-1q11.1,0,13.82.31c3.12.34,4.94,1.65,5.45,4a25,25,0,0,1,.39,3.49c0,.71.29,1.06.87,1.06s.87-.64.87-1.92q0-1,.39-6.79c.13-2,.29-3.81.49-5.37.19-1.29.29-2,.29-2q0-.81-.69-.81c-.26,0-.78.44-1.56,1.31a4.12,4.12,0,0,1-2.14,1.22,17.53,17.53,0,0,1-2.53.3q-2.24.19-15.57.2c-.45,0-.68-.37-.68-1.11v-25.63c0-.68.23-1,.68-1q10.51,0,13.82.4,5.35.71,6.52,3.65a7.06,7.06,0,0,1,.38,1.82c.07.68.15,1.38.24,2.13s.38,1.11.83,1.11.84-.37,1-1.11q.39-4,.54-6.69c.1-1.82.24-3.41.44-4.76.19-1.15.29-1.76.29-1.83,0-.6-.2-.91-.58-.91a14.42,14.42,0,0,1-1.55.4,26.4,26.4,0,0,1-4.17.61q-1.26.1-24.24.1-1.06,0-6.06-.15c-3.32-.1-6-.15-7.89-.15-1.43,0-2.13.3-2.13.91s.54.91,1.64.91a18.52,18.52,0,0,1,3.78.3c2.58.61,4,2.53,4.17,5.78q.19,3.33.2,21.48v17.83q0,17.63-.49,21.58-.57,5.07-2.81,5.58c-1,.07-1.94.17-2.91.3-1.43.14-2.13.44-2.13.91,0,.68.64,1,1.93,1s3.67-.05,6.74-.15,4.89-.15,5.47-.15q1.74,0,10.08.3t16.77.31a11.78,11.78,0,0,0,3.88-.4c.58-.27,1-1,1.36-2.23a46.58,46.58,0,0,0,1.26-11.24C1004.66,1363.86,1004.39,1363.26,1003.88,1363.26Z" transform="translate(-231.22 -619.92)"/>
    <path class="cls-1" d="M1118.93,1376.73l-2.22-.2c-3.69-.74-7.3-3-10.86-6.89q-3.78-4-9.41-11.45-1.07-1.21-11.63-15.2,12.8-10.85,12.79-22.7a17.14,17.14,0,0,0-2.33-8.72,14.68,14.68,0,0,0-4.26-5.16q-6.1-4.37-17.83-4.36c-1,0-3.22,0-6.74.15s-5.83.15-6.93.15c-.39,0-2.21,0-5.43-.15s-5.85-.15-7.85-.15c-1.43,0-2.13.3-2.13.91s.54.91,1.64.91a18.52,18.52,0,0,1,3.78.3c2.58.61,4,2.53,4.17,5.78q.19,3.33.2,21.48v17.83q0,17.63-.49,21.58-.57,5.07-2.81,5.58c-1,.07-1.94.17-2.91.3-1.43.14-2.13.44-2.13.91,0,.68.64,1,1.93,1,1.48,0,3.72-.05,6.69-.15s4.68-.15,5.13-.15l5.58.15q5.38.15,8.67.15c1.3,0,1.94-.34,1.94-1s-.39-.81-1.16-.81a35.59,35.59,0,0,1-4.75-.4c-2.14-.27-3.4-2.11-3.78-5.54q-.49-4.43-.49-21.53v-1.41q0-.81.78-.81h8.43a2.14,2.14,0,0,1,1.75.71q5.43,7.8,9.6,14,8.52,12.27,13.27,14.9c2.26,1.29,5.73,1.92,10.37,1.92h9.21c1.23,0,1.85-.34,1.85-1C1120.59,1377.17,1120,1376.87,1118.93,1376.73Zm-45.36-34.45a21.83,21.83,0,0,1-7.37-1c-.58-.2-.87-.81-.87-1.82v-30.81a1.31,1.31,0,0,1,.49-1.21c.58-.4,2.42-.61,5.53-.61a13.76,13.76,0,0,1,9.59,3.85q5.24,5.07,5.24,14.69,0,10.86-5.73,15.21Q1078.23,1342.28,1073.57,1342.28Z" transform="translate(-231.22 -619.92)"/>
    <path class="cls-1" d="M1204.53,1301.45a22.23,22.23,0,0,1-2.61.45,42.84,42.84,0,0,1-6.69.46h-38.39c-3,0-6.19-.17-9.69-.51a7.72,7.72,0,0,1-2.62-.66,5.71,5.71,0,0,0-1.55-.55c-.46,0-.84.64-1.16,1.92q-2,8.91-2,11.65,0,1.62.87,1.62c.52,0,.87-.4,1.06-1.22a11.68,11.68,0,0,1,1.65-3.55q1.74-2.73,9.41-2.94l14.44-.4v41.54q0,17.12-.48,21.58-.57,5.07-2.82,5.58c-1,.07-1.93.17-2.9.3-1.43.14-2.14.44-2.14.91,0,.68.65,1,1.94,1s3.67-.05,6.74-.15,4.89-.15,5.47-.15,2.65.05,6.2.15,6.56.15,9,.15c1.23,0,1.85-.34,1.85-1s-.52-.81-1.56-.81a35,35,0,0,1-4.94-.4c-2.13-.34-3.4-2.16-3.78-5.47q-.49-4.47-.49-21.68v-41.54l12.22.31q11,.3,11.43,5.67l.1,1.12c.12,1.35.48,2,1.06,2s.71-.51.78-1.51.14-3,.24-6.14.14-5,.14-5.64C1205.31,1302.15,1205,1301.45,1204.53,1301.45Z" transform="translate(-231.22 -619.92)"/>
    <path class="cls-1" d="M1271.42,1376.83a34.52,34.52,0,0,1-4.9-.4c-2.31-.34-3.59-2-3.84-5q-.39-4.05-.38-22.19v-17.83q0-18.14.19-21.48c.19-3.44,1.37-5.38,3.55-5.78a16.57,16.57,0,0,1,3-.3c.93,0,1.39-.34,1.39-1s-.68-.81-2-.81-3.49,0-6.39.15-4.72.15-5.43.15-2.83,0-6-.15-5.35-.15-6.64-.15c-1.56,0-2.33.26-2.33.81s.56,1,1.7,1a13.94,13.94,0,0,1,3.34.4q3,.81,3.29,5.68.19,3.33.2,21.48v17.83q0,17.63-.49,22.14c-.33,3-1.26,4.67-2.81,5-1,.07-1.94.17-2.91.3-1.43.14-2.13.44-2.13.91,0,.68.64,1,1.93,1s3.67-.05,6.74-.15,4.89-.15,5.47-.15,2.64.05,6.16.15,6.51.15,9,.15c1.23,0,1.85-.34,1.85-1S1272.45,1376.83,1271.42,1376.83Z" transform="translate(-231.22 -619.92)"/>
    <path class="cls-1" d="M1359.53,1363.26c-.52,0-.87.51-1.06,1.52q-1,5.87-4.38,7.49c-1.69.82-4.73,1.22-9.14,1.22-4.87,0-8-.53-9.4-1.57s-2.16-3.36-2.28-7v-23.71c0-.68.19-1,.58-1q11.1,0,13.82.31c3.12.34,4.94,1.65,5.45,4a25,25,0,0,1,.39,3.49c0,.71.29,1.06.87,1.06s.87-.64.87-1.92q0-1,.39-6.79c.13-2,.29-3.81.49-5.37.19-1.29.29-2,.29-2q0-.81-.69-.81c-.26,0-.78.44-1.56,1.31a4.12,4.12,0,0,1-2.14,1.22,17.53,17.53,0,0,1-2.53.3q-2.24.19-15.57.2c-.45,0-.68-.37-.68-1.11v-25.63c0-.68.23-1,.68-1q10.52,0,13.82.4,5.36.71,6.52,3.65a7.06,7.06,0,0,1,.38,1.82c.06.67.15,1.38.24,2.13s.38,1.11.83,1.11.84-.37,1-1.11q.39-4,.54-6.69c.1-1.82.24-3.41.44-4.76.19-1.15.29-1.76.29-1.83,0-.6-.2-.91-.58-.91a14.42,14.42,0,0,1-1.55.4,26.4,26.4,0,0,1-4.17.61q-1.26.1-24.24.1-1.07,0-6.06-.15c-3.32-.1-6-.15-7.89-.15-1.43,0-2.13.3-2.13.91s.54.91,1.64.91a18.52,18.52,0,0,1,3.78.3c2.58.61,4,2.53,4.17,5.78q.19,3.33.2,21.48v17.83q0,17.63-.49,21.58-.57,5.07-2.81,5.58c-1,.07-1.94.17-2.91.3-1.43.14-2.13.44-2.13.91,0,.68.64,1,1.93,1s3.67-.05,6.74-.15,4.89-.15,5.47-.15q1.74,0,10.08.3t16.77.31a11.78,11.78,0,0,0,3.88-.4c.58-.27,1-1,1.36-2.23a46.58,46.58,0,0,0,1.26-11.24C1360.3,1363.86,1360,1363.26,1359.53,1363.26Z" transform="translate(-231.22 -619.92)"/>
    <path class="cls-1" d="M1439.3,1345.17q-3.58-5.84-12.31-12.72l-2.72-2.13q-5.91-4.66-8.09-7.85a11.77,11.77,0,0,1-2.18-6.74,9.83,9.83,0,0,1,3.1-7.55c2.06-1.92,4.88-2.89,8.44-2.89a12.51,12.51,0,0,1,10.56,5,11.06,11.06,0,0,1,2.52,6.68c0,1.22.32,1.83,1,1.83s1.07-1,1.07-3c0-3.17.06-6,.19-8.56s.2-3.74.2-3.59c0-.54-.45-.95-1.36-1.22a50.76,50.76,0,0,0-12.89-1.72q-10,0-16.19,5.37a17.41,17.41,0,0,0-6.2,13.78q0,12.27,14.35,24l4.46,3.65q9.49,7.8,9.5,16.21a10.93,10.93,0,0,1-3.2,7.8,13.11,13.11,0,0,1-9.79,3.75q-10.95,0-13.86-10.23a19.36,19.36,0,0,1-.87-5.16c0-1.15-.32-1.73-1-1.73s-1,.88-1.16,2.64q-.48,7.8-.49,13.27c0,1.76.62,2.9,1.85,3.44a33.66,33.66,0,0,0,14.15,2.64c6.2,0,11.35-1.39,15.41-4.16q9.11-6.18,9.11-17.63A24.65,24.65,0,0,0,1439.3,1345.17Z" transform="translate(-231.22 -619.92)"/>
    <rect class="cls-2" x="1263.96" y="716.56" width="273.58" height="7.76"/>
    <rect class="cls-2" x="0.02" y="716.56" width="273.58" height="7.76"/>
</svg>
