<svg id="Layer_1" data-name="Layer 1" xmlns="http://www.w3.org/2000/svg" viewBox="0 0 1486.71 282.25">
    <defs>
        <style>.cls-1{fill:#e7a800;}.cls-2{fill:#3b1e34;}</style>
    </defs>
    <path class="cls-1" d="M449.44,858.87l-83.68,67v215.28h83.68S449.72,882.08,449.44,858.87Z" transform="translate(-256.65 -858.87)"/>
    <path class="cls-2" d="M455.7,858.87l83.68,67v215.28S455.42,882.08,455.7,858.87Z" transform="translate(-256.65 -858.87)"/>
    <path class="cls-1" d="M592,963.74l-52.59,42.09v135.3H592S592.15,978.33,592,963.74Z" transform="translate(-256.65 -858.87)"/>
    <path class="cls-2" d="M595.9,963.74l52.6,42.09v135.3S595.73,978.33,595.9,963.74Z" transform="translate(-256.65 -858.87)"/>
    <path class="cls-1" d="M309.24,963.74l-52.59,42.09v135.3h52.59S309.41,978.33,309.24,963.74Z" transform="translate(-256.65 -858.87)"/>
    <path class="cls-2" d="M313.17,963.74l52.59,42.09v135.3S313,978.33,313.17,963.74Z" transform="translate(-256.65 -858.87)"/>
    <path class="cls-2" d="M816,1055.56a19.73,19.73,0,0,1-5.9-1,4.64,4.64,0,0,1-2.9-2.75,30,30,0,0,1-1.62-7.2l-8.81-62.54c-.35-2.29-1-3.4-2.06-3.4-.86,0-1.65.85-2.43,2.61l-26,57.14L740.16,982c-1.06-2.26-2-3.31-2.9-3.31s-1.69,1-2,2.9l-9.59,66c-.68,4.75-1.92,7.35-3.71,7.72a12.76,12.76,0,0,1-2.84.3c-1.24,0-1.86.35-1.86,1s.35,1.43,2.06,1.43c1.16,0,2.93,0,5.28-.15s3.79-.15,4.3-.15,1.79,0,4.2.15,4.41.15,6,.15c1.75,0,2.64-.49,2.64-1.43,0-.47-.3-1-1.77-1a17.36,17.36,0,0,1-4-.5c-1.78-.43-2.65-1.39-2.65-2.93a40.14,40.14,0,0,1,.28-4.71l5-39.8c4.51,10,7.75,17.23,9.89,22.12,1.29,3.1,4.93,10.64,11.15,23,2.28,4.63,3.14,5.25,3.67,5.25s1.5-.7,3.88-5.87l20.94-45.66,5.74,44.07c.41,3.34-.09,3.91-.33,4-1,.4-1.22,1-1.22,1.41,0,1.08,1.77,1.34,3.1,1.44,4.89.4,11.5.6,19.67.6,1.89,0,2.84-.49,2.84-1.43C817.91,1055.91,817.28,1055.56,816,1055.56Z" transform="translate(-256.65 -858.87)"/>
    <path class="cls-2" d="M921.74,980.9c-1.48,0-3.66.05-6.49.15l-4.53.15c-4.56-.2-8.32-.3-11.14-.3-1.57,0-2.36.41-2.36,1.22,0,.57.34,1.24,2,1.24a16.57,16.57,0,0,1,3.41.29c2.45.58,3.73,2.37,3.92,5.48.13,2.26.19,9.68.19,21.46v12.67a97.05,97.05,0,0,1-.77,14.33c-.82,4.57-2.42,8.12-4.76,10.57a17.39,17.39,0,0,1-13.12,5.38,17.62,17.62,0,0,1-11.89-4.09c-4.93-4.24-7.44-12.54-7.44-24.68v-14.18c0-12.23.06-19.25.19-21.46.19-3.31,1.28-5.1,3.32-5.48a16.29,16.29,0,0,1,2.75-.29c1.54,0,1.87-.67,1.87-1.24,0-1.22-1.84-1.22-2.45-1.22-1.22,0-3.36.05-6.35.15s-4.85.15-5.55.15-2.87-.05-6.23-.15-6-.15-7.91-.15c-.61,0-2.44,0-2.44,1.22,0,.57.34,1.23,2,1.23a17.46,17.46,0,0,1,3.7.3c2.45.58,3.73,2.36,3.92,5.47.13,2.21.19,9.22.19,21.43v14.78c0,12.51,2.93,21.61,8.71,27,5,4.69,12.25,7.07,21.71,7.07,8,0,14.89-2.48,20.35-7.37,3.71-3.34,6.31-8,7.75-13.92a74.13,74.13,0,0,0,1.55-16.77v-10.83c0-12.21.06-19.22.2-21.43.18-3.31,1.27-5.09,3.32-5.47a15.16,15.16,0,0,1,2.75-.3c1.7,0,2.06-.66,2.06-1.23C924.1,981.31,923.31,980.9,921.74,980.9Z" transform="translate(-256.65 -858.87)"/>
    <path class="cls-2" d="M1010.41,1041.6c-.53,0-1.2.31-1.39,1.8a10.4,10.4,0,0,1-2.43,5.89c-1.61,1.81-5.34,2.73-11.09,2.73-6.08,0-10-.72-11.5-2.15-.58-.51-1.32-2-1.64-6.46-.19-2.42-.28-7.34-.28-15.05v-17.81c0-12.21.06-19.22.19-21.43.19-3.31,1.27-5.09,3.31-5.47a20.52,20.52,0,0,1,3.72-.3c1.37,0,2.07-.41,2.07-1.23s-.79-1.22-2.35-1.22c-1.36,0-3.76.05-7.13.15s-5.4.15-6,.15-2.68-.05-5.89-.15-5.7-.15-7.37-.15c-.61,0-2.45,0-2.45,1.22,0,.57.34,1.23,2,1.23,2.37,0,4.07.33,5,1,1.2.82,1.87,2.44,2,4.81.13,2.21.2,9.22.2,21.43v17.81c0,11.65-.17,18.89-.49,21.51-.37,3.21-1.22,5-2.51,5.28-1,.07-2,.18-2.91.31s-2.42.33-2.42,1.23.76,1.33,2.26,1.33,3.68,0,6.74-.15,4.87-.15,5.45-.15c2.12,0,6.09.1,11.8.3s11.16.3,16.37.3a20.94,20.94,0,0,0,3.85-.2,3.51,3.51,0,0,0,2.56-2.77,46.46,46.46,0,0,0,1.46-11.72C1011.5,1042.28,1011.13,1041.6,1010.41,1041.6Z" transform="translate(-256.65 -858.87)"/>
    <path class="cls-2" d="M1105.86,980.34v-.05h-.3v.32l-.09-.3c-.07,0-.5.11-2.57.43a43.08,43.08,0,0,1-6.63.46h-38.33c-3,0-6.19-.17-9.66-.51a7.31,7.31,0,0,1-2.5-.63,5.14,5.14,0,0,0-1.68-.59c-.83,0-1.24,1.24-1.48,2.18-1.37,6-2,9.84-2,11.7,0,1.61.64,1.94,1.19,1.94s1.09-.25,1.37-1.46a11.51,11.51,0,0,1,1.61-3.45c1.09-1.71,4.16-2.64,9.12-2.78l14.1-.39v41.15c0,11.32-.17,18.55-.49,21.51-.36,3.21-1.23,5-2.51,5.28-1,.07-2,.18-2.91.31s-2.42.33-2.42,1.23.76,1.33,2.26,1.33,3.68,0,6.74-.15,4.88-.15,5.45-.15,2.66,0,6.19.15,6.56.15,9,.15c1.79,0,2.16-.72,2.16-1.33s-.32-1.13-1.87-1.13a34.78,34.78,0,0,1-4.89-.41c-2-.31-3.14-2-3.5-5.18-.33-2.94-.49-10.21-.49-21.61V987.2l11.87.3c7.07.2,10.81,2,11.11,5.37l.1,1.12c0,.57.22,2.31,1.38,2.31.65,0,1-.6,1.1-1.81.06-1,.14-3.06.24-6.13.1-3.32.15-5,.15-5.64S1106.65,980.65,1105.86,980.34Z" transform="translate(-256.65 -858.87)"/>
    <path class="cls-2" d="M1172.35,1055.56a34.25,34.25,0,0,1-4.84-.41c-2.16-.31-3.32-1.84-3.57-4.66s-.38-9.93-.38-22.13v-17.81c0-12,.06-19.22.19-21.43.19-3.31,1.26-5.09,3.28-5.47a15.87,15.87,0,0,1,3-.3c1.49,0,1.71-.83,1.71-1.33,0-1.12-1.77-1.12-2.35-1.12-1.36,0-3.5.05-6.4.15s-4.7.15-5.41.15-2.83-.05-5.94-.15-5.35-.15-6.64-.15-2.65.11-2.65,1.12c0,.61.35,1.33,2,1.33a13.92,13.92,0,0,1,3.26.4c1.86.5,2.86,2.26,3.05,5.37.13,2.21.19,9.22.19,21.43v17.81c0,11.65-.16,19.08-.48,22.07-.31,2.84-1.17,4.43-2.51,4.72-1,.07-2,.18-2.92.31s-2.41.33-2.41,1.23.75,1.33,2.25,1.33,3.68,0,6.74-.15,4.88-.15,5.46-.15,2.64,0,6.14.15,6.52.15,9,.15c1.78,0,2.16-.72,2.16-1.33S1173.89,1055.56,1172.35,1055.56Z" transform="translate(-256.65 -858.87)"/>
    <path class="cls-2" d="M1259.73,980.12l-.28,0v.32h0l-.14-.24a11.4,11.4,0,0,1-1.44.52,24.8,24.8,0,0,1-3.93.41c-1.32.06-9.68.1-25.54.1-.77,0-2.83-.05-6.13-.15s-6-.15-7.81-.15c-1.69,0-2.54.44-2.54,1.32s.66,1.13,2,1.13a17.4,17.4,0,0,1,3.7.3c2.45.58,3.73,2.36,3.92,5.47.13,2.21.19,9.22.19,21.43v17.81c0,11.65-.16,18.89-.48,21.51-.37,3.21-1.23,5-2.51,5.28-1,.07-1.94.18-2.81.31-1,.1-2.42.33-2.42,1.23s.79,1.33,2.35,1.33c1.37,0,3.54,0,6.64-.15s4.94-.15,5.65-.15c.51,0,2.53,0,6,.15s6.4.15,8.72.15c1.62,0,2.44-.45,2.44-1.33s-.66-1.13-2-1.13a34.84,34.84,0,0,1-4.83-.41c-2-.31-3.17-2-3.54-5.28-.32-2.94-.49-10.18-.49-21.51v-8.2c0-.59.23-.59.36-.59,8,0,12.82.11,14.34.31,2.49.32,4,1.44,4.68,3.37.14.88.3,1.77.49,2.63.16,1,.43,2.19,1.19,2.19s1.3-.75,1.3-2.24c0-2.18.13-4.66.39-7.35.12-1.15.29-2.49.48-4,.24-1.72.29-2.14.29-2.27,0-1.07-.56-1.23-.9-1.23s-.92.36-1.52,1.14a5.21,5.21,0,0,1-3.8,1.7c-.28.06-1.8.09-4.49.09h-12.45c-.13,0-.36,0-.36-.58V988.18c0-1.08.4-1.08.55-1.08l15,.3c3.28.06,5.34,1,6.13,2.81a9.44,9.44,0,0,1,.56,3.69c.09,1.57.75,1.9,1.28,1.9s1.1-.3,1.29-1.72c.2-3.17.35-5.9.49-8.18.11-1,.28-2,.47-3a7.5,7.5,0,0,0,.3-1.6C1260.45,980.48,1260.06,980.21,1259.73,980.12Z" transform="translate(-256.65 -858.87)"/>
    <path class="cls-2" d="M1365.73,1055.56a18.21,18.21,0,0,1-4-.4c-2.84-.64-5.63-4.28-8.28-10.83-10-25.59-18-46.52-24-62.23-1-2.34-1.84-3.43-2.72-3.43s-1.89,1.35-3,4.25l-24.3,63.54a23.08,23.08,0,0,1-3.14,6.18,7,7,0,0,1-4.82,2.71,20.52,20.52,0,0,1-3,.21c-1.29,0-1.48.71-1.48,1.13,0,.61.37,1.33,2.16,1.33,2,0,5.83-.1,11.42-.3,1,0,2.66,0,5.07.15s4.15.15,5.19.15c1.62,0,2-.72,2-1.33s-.3-1.13-1.77-1.13h-1.45c-2.39,0-3.55-.92-3.55-2.82a20.17,20.17,0,0,1,1.43-6.06l5.23-14.47c.21-.6.48-.6.57-.6h21.59a.67.67,0,0,1,.66.5l7.74,21.45a1.74,1.74,0,0,1,.09,1.34,1.14,1.14,0,0,1-.68.56c-1.36.1-1.65.72-1.65,1.23,0,.71,1,1,3.21,1.13,4.11.13,10.09.2,18.31.2a19.57,19.57,0,0,0,3.54-.21c1-.21,1.23-.72,1.23-1.12S1367.1,1055.56,1365.73,1055.56Zm-32.5-29.68a.49.49,0,0,1-.22,0H1315.1a.49.49,0,0,1,0-.27l8.92-24.93a2.31,2.31,0,0,1,.21-.65,2,2,0,0,1,.24.7l8.7,25C1333.22,1025.83,1333.22,1025.88,1333.23,1025.88Z" transform="translate(-256.65 -858.87)"/>
    <path class="cls-2" d="M1488.18,1055.56a19.68,19.68,0,0,1-5.9-1,4.68,4.68,0,0,1-2.91-2.75,29.57,29.57,0,0,1-1.61-7.2L1469,982.07c-.36-2.29-1-3.4-2.07-3.4-.85,0-1.65.85-2.42,2.61l-26,57.14L1412.29,982c-1-2.26-2-3.31-2.9-3.31s-1.68,1-2,2.9l-9.58,66c-.68,4.75-1.93,7.35-3.71,7.72a12.82,12.82,0,0,1-2.84.3c-1.24,0-1.87.35-1.87,1s.36,1.43,2.06,1.43c1.16,0,2.94,0,5.29-.15s3.78-.15,4.3-.15,1.79,0,4.19.15,4.42.15,6,.15c1.75,0,2.64-.49,2.64-1.43,0-.47-.31-1-1.77-1a17.36,17.36,0,0,1-4-.5c-1.79-.43-2.66-1.39-2.66-2.93a38.06,38.06,0,0,1,.29-4.71l5-39.8c4.52,10,7.75,17.23,9.9,22.12,1.28,3.1,4.93,10.64,11.14,23,2.29,4.63,3.14,5.25,3.67,5.25s1.5-.7,3.88-5.87l20.94-45.66,5.75,44.07c.4,3.34-.1,3.91-.34,4-1,.4-1.22,1-1.22,1.41,0,1.08,1.77,1.34,3.11,1.44,4.88.4,11.5.6,19.67.6,1.88,0,2.83-.49,2.83-1.43C1490,1055.91,1489.42,1055.56,1488.18,1055.56Z" transform="translate(-256.65 -858.87)"/>
    <path class="cls-2" d="M1553.42,1055.56a34.37,34.37,0,0,1-4.84-.41c-2.15-.31-3.32-1.84-3.56-4.66s-.38-9.93-.38-22.13v-17.81c0-12,.06-19.22.18-21.43.19-3.31,1.26-5.09,3.29-5.47a15.7,15.7,0,0,1,3-.3c1.49,0,1.71-.83,1.71-1.33,0-1.12-1.78-1.12-2.36-1.12-1.35,0-3.5.05-6.4.15s-4.7.15-5.41.15-2.83-.05-5.94-.15-5.35-.15-6.64-.15c-1.13,0-2.64.11-2.64,1.12,0,.61.35,1.33,2,1.33a13.85,13.85,0,0,1,3.26.4c1.87.5,2.86,2.26,3,5.37.13,2.21.19,9.22.19,21.43v17.81c0,11.65-.16,19.08-.48,22.07-.3,2.84-1.16,4.43-2.51,4.72-1,.07-2,.18-2.91.31s-2.42.33-2.42,1.23.76,1.33,2.25,1.33,3.69,0,6.74-.15,4.88-.15,5.46-.15,2.64,0,6.15.15,6.51.15,8.95.15c1.79,0,2.16-.72,2.16-1.33S1555,1055.56,1553.42,1055.56Z" transform="translate(-256.65 -858.87)"/>
    <path class="cls-2" d="M1643.82,1041.6c-.53,0-1.2.31-1.39,1.8a10.4,10.4,0,0,1-2.43,5.89c-1.61,1.81-5.34,2.73-11.09,2.73-6.08,0-10-.72-11.5-2.15-.58-.51-1.32-2-1.63-6.46-.2-2.42-.29-7.34-.29-15.05v-17.81c0-12.21.06-19.22.19-21.43.19-3.31,1.27-5.09,3.31-5.47a20.55,20.55,0,0,1,3.73-.3c1.36,0,2.06-.41,2.06-1.23s-.79-1.22-2.35-1.22c-1.36,0-3.75.05-7.13.15s-5.4.15-6,.15-2.68-.05-5.89-.15-5.7-.15-7.37-.15c-.61,0-2.45,0-2.45,1.22,0,.57.34,1.23,2,1.23,2.37,0,4.07.33,5,1,1.2.82,1.87,2.44,2,4.81.13,2.21.2,9.22.2,21.43v17.81c0,11.65-.17,18.89-.49,21.51-.37,3.21-1.22,5-2.51,5.28-1,.07-2,.18-2.91.31s-2.42.33-2.42,1.23.76,1.33,2.26,1.33,3.68,0,6.74-.15,4.88-.15,5.45-.15c2.12,0,6.09.1,11.8.3s11.17.3,16.37.3a20.86,20.86,0,0,0,3.85-.2,3.52,3.52,0,0,0,2.57-2.77,46.92,46.92,0,0,0,1.45-11.72C1644.91,1042.28,1644.55,1041.6,1643.82,1041.6Z" transform="translate(-256.65 -858.87)"/>
    <path class="cls-2" d="M1741.29,980.9c-.59,0-2.25.05-5.09.15s-4.56.15-5.26.15c-.9,0-2.38-.05-4.39-.15s-3.62-.15-4.71-.15c-1.63,0-2,.66-2,1.22s.68,1,2.14,1.37a2,2,0,0,1,1.64,2.17,13.49,13.49,0,0,1-1.33,5.12c-5,9.85-9.83,19-14.23,27.29-10.63-19.4-15.91-29.12-16.16-29.71a9.86,9.86,0,0,1-1.14-3.31,1.35,1.35,0,0,1,1.13-1.51c1.68-.48,2.36-.89,2.36-1.42s-.23-1.22-1.77-1.22-3.63.05-6,.15-3.84.15-4.35.15c-1.15,0-3.38-.05-6.62-.15s-5.11-.15-5.58-.15c-1.43,0-2.15.41-2.15,1.22,0,.57.3,1.23,1.77,1.23a7.91,7.91,0,0,1,3.9,1.27c2,1.19,4.23,3.64,6.57,7.28,1.62,2.58,4.79,7.92,9.43,15.88,4.81,8.26,7.22,12.46,7.58,13.22a26.88,26.88,0,0,1,2.2,10.5v8.3c0,3.75-.1,7.15-.28,10.09-.19,3.13-1.11,4.91-2.71,5.26-1,.07-1.94.18-2.83.31-1.67.24-2.41.62-2.41,1.23,0,.88.82,1.33,2.45,1.33,1.29,0,3.47,0,6.51-.15s4.89-.15,5.6-.15,2.62,0,6.08.15,6.41.15,8.72.15c1.57,0,2.36-.45,2.36-1.33,0-.51-.33-1.13-1.89-1.13a35.22,35.22,0,0,1-4.84-.41c-2-.25-3.16-1.51-3.54-3.88a82.68,82.68,0,0,1-.48-11.47v-8.3a28,28,0,0,1,1.43-10c.92-2.23,3.87-7.69,8.77-16.26s8.2-13.91,9.74-15.83a18.73,18.73,0,0,1,5.18-4.88,8.84,8.84,0,0,1,4-1.18c1.83,0,2.21-.72,2.21-1.33S1742.66,980.9,1741.29,980.9Z" transform="translate(-256.65 -858.87)"/>
    <path class="cls-1" d="M737.4,1080.15c-1,0-2.64,0-4.82.1s-3.69.1-4.56.1c-.47,0-1.82,0-4-.1s-4-.1-5.27-.1c-1,0-1.42.2-1.42.61s.36.61,1.09.61a12.68,12.68,0,0,1,2.53.2q2.58.6,2.78,3.86.13,2.22.13,14.33v11.9c0,7.84-.11,12.65-.33,14.4-.25,2.26-.88,3.5-1.87,3.72-.65,0-1.3.11-1.94.2-.95.1-1.42.3-1.42.61s.42.68,1.29.68,2.45,0,4.49-.1,3.27-.1,3.66-.1,1.69,0,4,.1,4.34.1,6,.1c.82,0,1.22-.23,1.22-.68s-.34-.54-1-.54a23.5,23.5,0,0,1-3.3-.27q-2.13-.33-2.52-3.65-.33-3-.33-14.47v-27.05c0-.72.21-1.16.62-1.31a7.54,7.54,0,0,1,2.42-.24,9.1,9.1,0,0,1,6.47,2.64q3.83,3.57,3.82,10.14a11.94,11.94,0,0,1-3,8.18,7.61,7.61,0,0,1-5.69,3c-1.2,0-1.81.25-1.81.75,0,.31.26.52.78.61a9.35,9.35,0,0,0,1.35.06,15.3,15.3,0,0,0,11.42-4.59,16.13,16.13,0,0,0,4.5-11.77,10.8,10.8,0,0,0-3.24-8Q745.56,1080.16,737.4,1080.15Z" transform="translate(-256.65 -858.87)"/>
    <path class="cls-1" d="M827.71,1130l-1.49-.13c-2.46-.49-4.87-2-7.24-4.6q-2.54-2.7-6.28-7.64-.72-.81-7.76-10.14,8.53-7.23,8.54-15.15a11.49,11.49,0,0,0-1.56-5.82,9.77,9.77,0,0,0-2.84-3.44q-4.08-2.91-11.9-2.91c-.65,0-2.15,0-4.5.1s-3.89.1-4.62.1c-.27,0-1.48,0-3.63-.1s-3.9-.1-5.24-.1c-1,0-1.42.2-1.42.61s.36.61,1.1.61a12.64,12.64,0,0,1,2.52.2q2.58.6,2.78,3.86.14,2.22.13,14.33v11.9c0,7.84-.11,12.65-.32,14.4-.26,2.26-.88,3.5-1.87,3.72-.66,0-1.3.11-2,.2-.95.1-1.42.3-1.42.61s.43.68,1.29.68,2.48,0,4.47-.1,3.12-.1,3.42-.1l3.73.1c2.39.06,4.32.1,5.78.1.87,0,1.3-.23,1.3-.68s-.26-.54-.78-.54a23.9,23.9,0,0,1-3.17-.27q-2.13-.27-2.52-3.69-.33-3-.33-14.37v-.94a.47.47,0,0,1,.52-.54h5.63a1.41,1.41,0,0,1,1.16.47c2.42,3.47,4.56,6.59,6.41,9.33q5.69,8.19,8.86,9.94,2.26,1.29,6.92,1.29h6.15c.82,0,1.23-.23,1.23-.68S828.44,1130.08,827.71,1130Zm-30.28-23a14.5,14.5,0,0,1-4.91-.67c-.39-.14-.59-.54-.59-1.22v-20.56a.89.89,0,0,1,.33-.81c.39-.26,1.62-.4,3.69-.4a9.17,9.17,0,0,1,6.4,2.57q3.49,3.38,3.5,9.8c0,4.83-1.28,8.2-3.83,10.15A7.48,7.48,0,0,1,797.43,1107Z" transform="translate(-256.65 -858.87)"/>
    <path class="cls-1" d="M870.92,1079.21q-13.33,0-20.64,8.92a28.64,28.64,0,0,0,0,35.29q7.19,8.8,20,8.8,12.09,0,19.54-8,7.25-7.79,7.24-19.68,0-11.62-7-18.46T870.92,1079.21Zm11.25,46a12.79,12.79,0,0,1-9.18,3.59,17.29,17.29,0,0,1-14.56-7.38q-5.31-7-5.3-17.85,0-11.49,5.17-16.9a14.19,14.19,0,0,1,10.74-4.26A16.6,16.6,0,0,1,882.5,1089q5.49,6.9,5.49,18Q888,1119.77,882.17,1125.25Z" transform="translate(-256.65 -858.87)"/>
    <path class="cls-1" d="M942.91,1080.15c-1,0-2.63,0-4.81.1s-3.7.1-4.56.1c-.48,0-1.83,0-4-.1s-4-.1-5.27-.1c-1,0-1.42.2-1.42.61s.36.61,1.1.61a12.64,12.64,0,0,1,2.52.2q2.58.6,2.78,3.86.13,2.22.13,14.33v11.9c0,7.84-.11,12.65-.32,14.4-.26,2.26-.89,3.5-1.88,3.72-.65,0-1.29.11-1.94.2-1,.1-1.42.3-1.42.61s.43.68,1.29.68,2.45,0,4.5-.1,3.26-.1,3.65-.1,1.69,0,4,.1,4.34.1,6,.1c.82,0,1.23-.23,1.23-.68s-.35-.54-1-.54a23.61,23.61,0,0,1-3.3-.27q-2.13-.33-2.52-3.65-.32-3-.32-14.47v-27.05c0-.72.2-1.16.61-1.31a7.61,7.61,0,0,1,2.43-.24,9.12,9.12,0,0,1,6.47,2.64q3.81,3.57,3.81,10.14a12,12,0,0,1-3,8.18q-2.65,3-5.7,3c-1.2,0-1.81.25-1.81.75,0,.31.27.52.78.61a9.52,9.52,0,0,0,1.36.06,15.3,15.3,0,0,0,11.42-4.59,16.17,16.17,0,0,0,4.5-11.77,10.84,10.84,0,0,0-3.24-8Q951.07,1080.16,942.91,1080.15Z" transform="translate(-256.65 -858.87)"/>
    <path class="cls-1" d="M1015.43,1121c-.34,0-.58.34-.71,1-.43,2.61-1.41,4.28-2.92,5q-1.69.81-6.1.81-4.87,0-6.27-1c-.94-.7-1.44-2.24-1.53-4.63v-15.82c0-.45.13-.68.39-.68q7.41,0,9.22.21c2.08.22,3.3,1.1,3.64,2.63a16.23,16.23,0,0,1,.27,2.33c0,.48.19.71.58.71s.58-.42.58-1.28c0-.45.09-2,.26-4.53.09-1.35.2-2.54.33-3.58.13-.86.19-1.31.19-1.36q0-.54-.45-.54c-.18,0-.52.3-1,.88a2.85,2.85,0,0,1-1.43.82,13.31,13.31,0,0,1-1.69.2c-1,.08-4.46.13-10.39.13-.3,0-.46-.25-.46-.74v-17.11c0-.45.16-.68.46-.68,4.68,0,7.74.09,9.22.27q3.57.48,4.35,2.44a5.36,5.36,0,0,1,.26,1.22c0,.45.1.92.16,1.42s.25.74.55.74.56-.25.65-.74q.27-2.64.36-4.47c.07-1.21.16-2.27.29-3.17s.2-1.18.2-1.23q0-.6-.39-.6s-.3.09-1,.27a17,17,0,0,1-2.79.4q-.84.08-16.17.07c-.47,0-1.82,0-4-.1s-4-.1-5.26-.1c-1,0-1.43.2-1.43.61s.37.61,1.1.61a12.68,12.68,0,0,1,2.53.2q2.58.6,2.78,3.86.12,2.22.13,14.33v11.9c0,7.84-.11,12.65-.33,14.4-.25,2.26-.88,3.5-1.87,3.72-.65,0-1.3.11-1.94.2-.95.1-1.42.3-1.42.61s.42.68,1.29.68,2.45,0,4.49-.1,3.27-.1,3.66-.1c.77,0,3,.06,6.72.2s7.44.2,11.2.2a7.55,7.55,0,0,0,2.58-.27c.39-.18.69-.67.91-1.49a31.07,31.07,0,0,0,.84-7.5C1016,1121.39,1015.78,1121,1015.43,1121Z" transform="translate(-256.65 -858.87)"/>
    <path class="cls-1" d="M1092.22,1130l-1.49-.13c-2.46-.49-4.87-2-7.25-4.6q-2.52-2.7-6.27-7.64-.72-.81-7.76-10.14,8.54-7.23,8.53-15.15a11.48,11.48,0,0,0-1.55-5.82,9.88,9.88,0,0,0-2.84-3.44q-4.08-2.91-11.91-2.91c-.65,0-2.14,0-4.49.1s-3.89.1-4.63.1c-.26,0-1.47,0-3.62-.1s-3.91-.1-5.24-.1c-1,0-1.42.2-1.42.61s.36.61,1.1.61a12.64,12.64,0,0,1,2.52.2q2.58.6,2.78,3.86.13,2.22.13,14.33v11.9c0,7.84-.11,12.65-.32,14.4-.26,2.26-.89,3.5-1.88,3.72-.65,0-1.29.11-1.94.2-1,.1-1.42.3-1.42.61s.43.68,1.29.68,2.48,0,4.47-.1,3.12-.1,3.42-.1l3.72.1c2.4.06,4.33.1,5.79.1.87,0,1.3-.23,1.3-.68s-.27-.54-.78-.54a23.9,23.9,0,0,1-3.17-.27q-2.14-.27-2.52-3.69-.33-3-.33-14.37v-.94a.47.47,0,0,1,.52-.54h5.63a1.42,1.42,0,0,1,1.16.47c2.42,3.47,4.56,6.59,6.41,9.33q5.68,8.19,8.86,9.94,2.26,1.29,6.92,1.29h6.14c.82,0,1.24-.23,1.24-.68S1093,1130.08,1092.22,1130Zm-30.28-23a14.52,14.52,0,0,1-4.92-.67c-.38-.14-.58-.54-.58-1.22v-20.56a.89.89,0,0,1,.33-.81c.39-.26,1.61-.4,3.69-.4a9.18,9.18,0,0,1,6.4,2.57q3.5,3.38,3.49,9.8c0,4.83-1.27,8.2-3.82,10.15A7.52,7.52,0,0,1,1061.94,1107Z" transform="translate(-256.65 -858.87)"/>
    <path class="cls-1" d="M1149.34,1079.74a15.53,15.53,0,0,1-1.75.31,29.43,29.43,0,0,1-4.46.3h-25.62q-3,0-6.47-.34a5,5,0,0,1-1.74-.43,3.71,3.71,0,0,0-1-.37c-.3,0-.56.42-.77,1.28a45.73,45.73,0,0,0-1.36,7.77c0,.72.19,1.09.58,1.09s.58-.27.71-.82a7.58,7.58,0,0,1,1.1-2.36c.78-1.22,2.87-1.87,6.28-2l9.63-.26v27.72q0,11.43-.32,14.4c-.26,2.26-.88,3.5-1.88,3.72-.64,0-1.29.11-1.93.2-1,.1-1.43.3-1.43.61s.43.68,1.29.68,2.45,0,4.5-.1,3.27-.1,3.65-.1,1.77,0,4.14.1,4.38.1,6,.1c.82,0,1.23-.23,1.23-.68s-.34-.54-1-.54a23.37,23.37,0,0,1-3.29-.27c-1.42-.22-2.27-1.44-2.53-3.65q-.33-3-.32-14.47v-27.72l8.15.2c4.88.13,7.42,1.4,7.63,3.79l.07.74c.08.9.32,1.35.71,1.35s.48-.33.52-1,.09-2,.16-4.1.1-3.31.1-3.77C1149.86,1080.21,1149.68,1079.74,1149.34,1079.74Z" transform="translate(-256.65 -858.87)"/>
    <path class="cls-1" d="M1194,1130.05a23.11,23.11,0,0,1-3.27-.27c-1.54-.22-2.39-1.33-2.56-3.31q-.27-2.71-.26-14.81v-11.9q0-12.1.13-14.33.18-3.45,2.36-3.86a11.39,11.39,0,0,1,2-.2c.62,0,.93-.23.93-.68s-.45-.54-1.36-.54-2.33,0-4.26.1-3.15.1-3.63.1-1.89,0-4-.1-3.57-.1-4.43-.1c-1,0-1.55.18-1.55.54s.38.68,1.13.68a8.79,8.79,0,0,1,2.23.27c1.34.36,2.07,1.62,2.2,3.79q.13,2.22.13,14.33v11.9q0,11.76-.32,14.78c-.22,2-.84,3.12-1.87,3.34-.66,0-1.3.11-1.95.2-1,.1-1.42.3-1.42.61s.43.68,1.29.68,2.45,0,4.5-.1,3.26-.1,3.65-.1,1.76,0,4.11.1,4.35.1,6,.1c.82,0,1.24-.23,1.24-.68S1194.66,1130.05,1194,1130.05Z" transform="translate(-256.65 -858.87)"/>
    <path class="cls-1" d="M1252.77,1121c-.34,0-.58.34-.71,1q-.64,3.91-2.92,5-1.7.81-6.1.81-4.87,0-6.27-1c-.94-.7-1.44-2.24-1.52-4.63v-15.82c0-.45.12-.68.38-.68q7.41,0,9.23.21c2.07.22,3.29,1.1,3.63,2.63a16.23,16.23,0,0,1,.27,2.33c0,.48.19.71.58.71s.58-.42.58-1.28q0-.67.27-4.53c.08-1.35.19-2.54.32-3.58.13-.86.2-1.31.2-1.36,0-.36-.15-.54-.46-.54s-.52.3-1,.88a2.85,2.85,0,0,1-1.43.82,13.31,13.31,0,0,1-1.69.2c-1,.08-4.46.13-10.39.13-.3,0-.45-.25-.45-.74v-17.11c0-.45.15-.68.45-.68q7,0,9.22.27,3.57.48,4.35,2.44a5.36,5.36,0,0,1,.26,1.22c0,.45.1.92.16,1.42s.25.74.55.74.57-.25.65-.74q.27-2.64.36-4.47c.07-1.21.16-2.27.29-3.17s.2-1.18.2-1.23q0-.6-.39-.6s-.3.09-1,.27a17,17,0,0,1-2.78.4c-.57,0-6,.07-16.18.07-.47,0-1.82,0-4-.1s-4-.1-5.27-.1c-1,0-1.42.2-1.42.61s.36.61,1.09.61a12.68,12.68,0,0,1,2.53.2q2.58.6,2.78,3.86.13,2.22.13,14.33v11.9c0,7.84-.11,12.65-.33,14.4-.25,2.26-.88,3.5-1.87,3.72-.65,0-1.3.11-1.94.2-1,.1-1.42.3-1.42.61s.42.68,1.29.68,2.45,0,4.49-.1,3.27-.1,3.66-.1c.77,0,3,.06,6.72.2s7.45.2,11.2.2a7.55,7.55,0,0,0,2.58-.27c.39-.18.69-.67.91-1.49a31.07,31.07,0,0,0,.84-7.5C1253.29,1121.39,1253.12,1121,1252.77,1121Z" transform="translate(-256.65 -858.87)"/>
    <path class="cls-1" d="M1306,1108.92a35.34,35.34,0,0,0-8.21-8.49L1296,1099a27.05,27.05,0,0,1-5.4-5.23,7.86,7.86,0,0,1-1.45-4.5,6.58,6.58,0,0,1,2.07-5,7.93,7.93,0,0,1,5.63-1.93,8.33,8.33,0,0,1,7,3.32,7.33,7.33,0,0,1,1.69,4.46c0,.81.21,1.22.64,1.22s.72-.68.72-2c0-2.12,0-4,.12-5.71s.14-2.5.14-2.4c0-.37-.31-.64-.91-.82a34.19,34.19,0,0,0-8.6-1.14q-6.66,0-10.81,3.58a11.6,11.6,0,0,0-4.14,9.19q0,8.19,9.58,16l3,2.43q6.35,5.2,6.34,10.82a7.3,7.3,0,0,1-2.13,5.21,8.79,8.79,0,0,1-6.54,2.5q-7.31,0-9.25-6.83a12.75,12.75,0,0,1-.58-3.45c0-.77-.21-1.15-.65-1.15s-.69.59-.77,1.76q-.33,5.21-.33,8.86a2.24,2.24,0,0,0,1.24,2.3,22.5,22.5,0,0,0,9.44,1.76,17.85,17.85,0,0,0,10.28-2.78,13.38,13.38,0,0,0,6.08-11.76A16.35,16.35,0,0,0,1306,1108.92Z" transform="translate(-256.65 -858.87)"/>
</svg>
